<svg width="18" height="18" viewBox="0 0 18 18" fill="none" xmlns="http://www.w3.org/2000/svg">
<path fill-rule="evenodd" clip-rule="evenodd" d="M7.04276 15.2679H2.55776C1.50127 15.2679 0.642578 14.4092 0.642578 13.3527V2.55806C0.642578 1.50158 1.50127 0.642883 2.55776 0.642883H10.5667C11.6232 0.642883 12.4819 1.50158 12.4819 2.55806V6.79931C12.4819 7.08763 12.2479 7.32163 11.9595 7.32163C11.6712 7.32163 11.4372 7.08763 11.4372 6.79931V2.55806C11.4372 2.07822 11.0465 1.68753 10.5667 1.68753H2.55776C2.07792 1.68753 1.68722 2.07822 1.68722 2.55806V13.3527C1.68722 13.8325 2.07792 14.2232 2.55776 14.2232H7.04276C7.33108 14.2232 7.56508 14.4572 7.56508 14.7456C7.56508 15.0339 7.33108 15.2679 7.04276 15.2679ZM8.30329 12.8304C8.30329 15.3264 10.3341 17.3572 12.8301 17.3572C15.3261 17.3572 17.3569 15.3264 17.3569 12.8304C17.3569 10.3344 15.3261 8.3036 12.8301 8.3036C10.3341 8.3036 8.30329 10.3344 8.30329 12.8304ZM9.34793 12.8304C9.34793 10.9103 10.91 9.34824 12.8301 9.34824C14.7501 9.34824 16.3122 10.9103 16.3122 12.8304C16.3122 14.7504 14.7501 16.3125 12.8301 16.3125C10.91 16.3125 9.34793 14.7504 9.34793 12.8304ZM12.8301 15.2679C12.5418 15.2679 12.3078 15.0339 12.3078 14.7456V13.3527H10.9149C10.6266 13.3527 10.3926 13.1187 10.3926 12.8304C10.3926 12.5421 10.6266 12.3081 10.9149 12.3081H12.3078V10.9152C12.3078 10.6269 12.5418 10.3929 12.8301 10.3929C13.1184 10.3929 13.3524 10.6269 13.3524 10.9152V12.3081H14.7452C15.0336 12.3081 15.2676 12.5421 15.2676 12.8304C15.2676 13.1187 15.0336 13.3527 14.7452 13.3527H13.3524V14.7456C13.3524 15.0339 13.1184 15.2679 12.8301 15.2679ZM3.25419 7.25895H9.87026C10.1586 7.25895 10.3926 7.02495 10.3926 6.73663C10.3926 6.44831 10.1586 6.21431 9.87026 6.21431H3.25419C2.96586 6.21431 2.73186 6.44831 2.73186 6.73663C2.73186 7.02495 2.96586 7.25895 3.25419 7.25895ZM7.08454 10.0447H3.25419C2.96586 10.0447 2.73186 9.81067 2.73186 9.52235C2.73186 9.23403 2.96586 9.00003 3.25419 9.00003H7.08454C7.37286 9.00003 7.60686 9.23403 7.60686 9.52235C7.60686 9.81067 7.37286 10.0447 7.08454 10.0447ZM3.25419 4.47324H6.38811C6.67643 4.47324 6.91044 4.23924 6.91044 3.95092C6.91044 3.6626 6.67643 3.4286 6.38811 3.4286H3.25419C2.96586 3.4286 2.73186 3.6626 2.73186 3.95092C2.73186 4.23924 2.96586 4.47324 3.25419 4.47324Z" fill="white"/>
</svg>
