<svg width="18" height="18" viewBox="0 0 18 18" fill="none" xmlns="http://www.w3.org/2000/svg">
<path d="M0.75 13.1244C0.543 13.1244 0.375 13.2924 0.375 13.4994V17.2494C0.375 17.4564 0.543 17.6244 0.75 17.6244H17.25C17.457 17.6244 17.625 17.4564 17.625 17.2494V13.4994C17.625 13.2924 17.457 13.1244 17.25 13.1244C17.043 13.1244 16.875 13.2924 16.875 13.4994V16.8744H1.125V13.4994C1.125 13.2924 0.957 13.1244 0.75 13.1244Z" fill="#272727"/>
<path d="M13.1248 8.62427H9.74975V0.749268C9.74975 0.542268 9.58213 0.374268 9.37475 0.374268H8.62475C8.41738 0.374268 8.24975 0.542268 8.24975 0.749268V8.62427H4.87475C4.73113 8.62427 4.60025 8.70639 4.53763 8.83539C4.475 8.96439 4.4915 9.11814 4.58 9.23102L8.705 14.481C8.77588 14.5714 8.88463 14.6243 8.99975 14.6243C9.11488 14.6243 9.22363 14.5714 9.2945 14.481L13.4195 9.23102C13.508 9.11814 13.5245 8.96477 13.4619 8.83539C13.3993 8.70602 13.2684 8.62427 13.1248 8.62427Z" fill="#272727"/>
</svg>
