<svg width="24" height="24" viewBox="0 0 24 24" fill="none" xmlns="http://www.w3.org/2000/svg">
<circle cx="12" cy="12" r="12" fill="#F0F2F9"/>
<path d="M11.2109 14.5312V14.0312C11.2109 13.4583 11.3151 12.9818 11.5234 12.6016C11.7318 12.2214 12.0964 11.8281 12.6172 11.4219C13.237 10.9323 13.6354 10.5521 13.8125 10.2812C13.9948 10.0104 14.0859 9.6875 14.0859 9.3125C14.0859 8.875 13.9401 8.53906 13.6484 8.30469C13.3568 8.07031 12.9375 7.95312 12.3906 7.95312C11.8958 7.95312 11.4375 8.02344 11.0156 8.16406C10.5938 8.30469 10.1823 8.47396 9.78125 8.67188L9.125 7.29688C10.1823 6.70833 11.3151 6.41406 12.5234 6.41406C13.5443 6.41406 14.3542 6.66406 14.9531 7.16406C15.5521 7.66406 15.8516 8.35417 15.8516 9.23438C15.8516 9.625 15.7943 9.97396 15.6797 10.2812C15.5651 10.5833 15.3906 10.8724 15.1562 11.1484C14.9271 11.4245 14.5286 11.7839 13.9609 12.2266C13.4766 12.6068 13.151 12.9219 12.9844 13.1719C12.8229 13.4219 12.7422 13.7578 12.7422 14.1797V14.5312H11.2109ZM10.8906 17.0234C10.8906 16.237 11.2734 15.8438 12.0391 15.8438C12.4141 15.8438 12.7005 15.9479 12.8984 16.1562C13.0964 16.3594 13.1953 16.6484 13.1953 17.0234C13.1953 17.3932 13.0938 17.6875 12.8906 17.9062C12.6927 18.1198 12.4089 18.2266 12.0391 18.2266C11.6693 18.2266 11.3854 18.1224 11.1875 17.9141C10.9896 17.7005 10.8906 17.4036 10.8906 17.0234Z" fill="#272727"/>
</svg>
