<svg width="23" height="24" viewBox="0 0 23 24" fill="none" xmlns="http://www.w3.org/2000/svg">
<path fill-rule="evenodd" clip-rule="evenodd" d="M22.5453 10.8728C22.4584 4.85046 17.5848 0 11.5695 0C5.55589 0 0.680656 4.84845 0.5938 10.8728C0.590704 10.9759 0.593071 10.9515 0.591797 14.5461C0.591797 15.9598 1.73549 17.1101 3.1414 17.1101H3.14176C4.54766 17.1101 5.69136 15.9598 5.69136 14.5461V10.9517C5.69136 9.53796 4.54766 8.38788 3.1414 8.38788C3.03943 8.38788 2.93891 8.39465 2.83986 8.40637C3.96698 4.63257 7.45361 1.875 11.5695 1.875C15.6853 1.875 19.1721 4.63257 20.2992 8.40637C20.2001 8.39465 20.0995 8.38788 19.9973 8.38788C18.5916 8.38788 17.4477 9.53796 17.4477 10.9517V14.5461C17.4477 15.9598 18.5916 17.1101 19.9973 17.1101H19.9977C20.0224 17.1101 20.0468 17.1088 20.0714 17.1081C19.1404 18.9412 17.2436 20.1993 15.06 20.1993H14.2593C13.8722 19.0796 12.8132 18.2736 11.5695 18.2736C9.99957 18.2736 8.72222 19.5579 8.72222 21.1368C8.72222 22.7155 9.99957 24 11.5695 24C12.8132 24 13.8722 23.194 14.2593 22.0743H15.06C19.1885 22.0743 22.5473 18.6973 22.5473 14.5463V14.5461V10.9517C22.5473 10.9252 22.546 10.8992 22.5453 10.8728ZM3.14176 10.2629C3.5196 10.2629 3.82678 10.5718 3.82678 10.9517V14.5461C3.82678 14.926 3.5196 15.2349 3.14176 15.2349H3.1414C2.76375 15.2349 2.45638 14.926 2.45638 14.5461C2.45711 12.1653 2.45474 11.1766 2.45784 10.923C2.47295 10.5566 2.77322 10.2629 3.14176 10.2629ZM11.5695 22.125C11.0276 22.125 10.5868 21.6817 10.5868 21.1368C10.5868 20.5919 11.0276 20.1486 11.5695 20.1486C12.1114 20.1486 12.5523 20.5919 12.5523 21.1368C12.5523 21.6817 12.1114 22.125 11.5695 22.125ZM20.6827 14.5461C20.6827 14.926 20.3753 15.2349 19.9977 15.2349H19.9973C19.6196 15.2349 19.3123 14.926 19.3123 14.5461V10.9517C19.3123 10.5718 19.6196 10.2629 19.9977 10.2629C20.3658 10.2629 20.6661 10.5566 20.6812 10.923C20.684 11.1478 20.6816 10.8746 20.6827 14.5461Z" fill="white"/>
</svg>
