<svg width="9" height="10" viewBox="0 0 9 10" fill="none" xmlns="http://www.w3.org/2000/svg">
<path d="M7.08519 6.54864C6.74556 6.54864 6.43944 6.68047 6.20705 6.89275L3.02296 5.03592C3.04754 4.93537 3.06318 4.83035 3.06318 4.72309C3.06318 4.61584 3.04754 4.51082 3.02296 4.41027L6.17354 2.57131C6.41262 2.79476 6.73215 2.9333 7.08519 2.9333C7.8248 2.9333 8.42587 2.33223 8.42587 1.59262C8.42587 0.853021 7.8248 0.251953 7.08519 0.251953C6.34559 0.251953 5.74452 0.853021 5.74452 1.59262C5.74452 1.69988 5.76016 1.8049 5.78474 1.90545L2.63416 3.7444C2.39508 3.52096 2.07555 3.38242 1.72251 3.38242C0.982904 3.38242 0.381836 3.98349 0.381836 4.72309C0.381836 5.4627 0.982904 6.06376 1.72251 6.06376C2.07555 6.06376 2.39508 5.92523 2.63416 5.70178L5.81826 7.55861C5.79591 7.65246 5.78251 7.75078 5.78251 7.85133C5.78251 8.57082 6.3657 9.15401 7.08519 9.15401C7.80469 9.15401 8.38788 8.57082 8.38788 7.85133C8.38788 7.13183 7.80469 6.54864 7.08519 6.54864Z" fill="#272727"/>
</svg>
