<svg width="28" height="28" viewBox="0 0 28 28" fill="none" xmlns="http://www.w3.org/2000/svg">
<path fill-rule="evenodd" clip-rule="evenodd" d="M14 0C6.26817 0 0 6.26817 0 14C0 21.7318 6.26817 28 14 28C21.7318 28 28 21.7318 28 14C28 6.26817 21.7318 0 14 0ZM14 25.6666C7.55683 25.6666 2.33335 20.4432 2.33335 14C2.33335 7.55683 7.55683 2.33335 14 2.33335C20.4432 2.33335 25.6666 7.55683 25.6666 14C25.6666 20.4432 20.4432 25.6666 14 25.6666ZM15.5084 7.34169C15.964 6.88609 16.7027 6.88609 17.1583 7.34169C17.6139 7.79734 17.6139 8.53601 17.1583 8.99161L12.1499 14L17.1583 19.0084C17.6139 19.464 17.6139 20.2027 17.1583 20.6583C16.7027 21.1139 15.964 21.1139 15.5084 20.6583L9.67504 14.825C9.21944 14.3694 9.21944 13.6306 9.67504 13.175L15.5084 7.34169Z" fill="#FF285C"/>
</svg>
