<svg width="28" height="28" viewBox="0 0 28 28" fill="none" xmlns="http://www.w3.org/2000/svg">
<path fill-rule="evenodd" clip-rule="evenodd" d="M26.7134 13.104L17.7861 4.20829L20.1294 1.86755C20.5568 1.44066 20.5571 0.748098 20.1303 0.32077C19.7034 -0.106613 19.0109 -0.106941 18.5835 0.319895L5.38509 13.5039C3.54124 14.0183 2.18455 15.7131 2.18455 17.7188C2.18455 18.3229 2.67423 18.8126 3.2783 18.8126C3.88238 18.8126 4.37205 18.3229 4.37205 17.7188C4.37205 16.87 4.85806 16.1325 5.56637 15.77L14.8193 24.9912C15.6721 25.8432 16.7917 26.2689 17.9116 26.2689C19.0316 26.2688 20.1517 25.8427 21.0038 24.9906L26.7157 19.2935C27.5422 18.467 27.9973 17.368 27.9971 16.1991C27.9968 15.0301 27.5413 13.9313 26.7134 13.104ZM25.1699 17.7456L19.458 23.4428C18.6056 24.2953 17.2181 24.2956 16.3644 23.4427L8.42582 15.5313H20.5596C21.1637 15.5313 21.6534 15.0417 21.6534 14.4376C21.6534 13.8335 21.1637 13.3438 20.5596 13.3438H8.64063L16.2385 5.7543L25.1683 14.6525C25.5817 15.0656 25.8095 15.615 25.8096 16.1995C25.8097 16.7839 25.5822 17.3333 25.1699 17.7456ZM5.20467 21.8364C4.64812 21.0054 4.09774 20.3338 4.07455 20.3056C3.8668 20.0528 3.55672 19.9063 3.22952 19.9063C2.90233 19.9063 2.59225 20.0528 2.38449 20.3056C2.3613 20.3338 1.81093 21.0054 1.25437 21.8364C0.132679 23.5112 0.00296021 24.3147 0.00296021 24.7735C0.00296021 26.5527 1.45043 28.0001 3.22952 28.0001C5.00862 28.0001 6.45609 26.5527 6.45609 24.7735C6.45609 24.3147 6.32637 23.5112 5.20467 21.8364ZM3.22952 25.8126C2.65656 25.8126 2.19046 25.3465 2.19041 24.7761C2.19062 24.7718 2.21917 24.3239 3.08116 23.0398C3.13076 22.966 3.1803 22.8934 3.22952 22.8227C3.27869 22.8934 3.32829 22.966 3.37789 23.0398C4.22489 24.3017 4.26722 24.756 4.26859 24.7755C4.26749 25.3475 3.80177 25.8126 3.22952 25.8126Z" fill="white"/>
</svg>
