<svg width="23" height="26" viewBox="0 0 23 26" fill="none" xmlns="http://www.w3.org/2000/svg">
<path fill-rule="evenodd" clip-rule="evenodd" d="M17.2978 0.218201L22.7654 5.43518C22.9155 5.5784 23 5.77419 23 5.9787V23.1578C23 24.7251 21.6875 26 20.0745 26H2.92551C1.31227 26 0 24.7249 0 23.1578V2.84216C0 1.27489 1.31248 0 2.92551 0H16.7484C16.954 0 17.1512 0.0783539 17.2978 0.218201ZM20.2987 5.21698L17.5324 2.57755V4.97478C17.5324 5.10828 17.6443 5.21698 17.7817 5.21698H20.2987ZM20.0745 24.4766H2.92551C2.17719 24.4766 1.56811 23.885 1.56811 23.1578V2.84216C1.56811 2.11496 2.17698 1.52344 2.92551 1.52344H15.9645V4.97478C15.9645 5.94835 16.7798 6.74042 17.7819 6.74042H21.4319V23.1578C21.4319 23.885 20.823 24.4766 20.0745 24.4766ZM5.89043 12.0859H16.9432C17.3762 12.0859 17.7272 12.4269 17.7272 12.8477C17.7272 13.2684 17.3762 13.6094 16.9432 13.6094H5.89043C5.45736 13.6094 5.10637 13.2684 5.10637 12.8477C5.10637 12.4269 5.45736 12.0859 5.89043 12.0859ZM5.89043 16.6562H14.9026C15.3356 16.6562 15.6866 16.3153 15.6866 15.8945C15.6866 15.4738 15.3356 15.1328 14.9026 15.1328H5.89043C5.45736 15.1328 5.10637 15.4738 5.10637 15.8945C5.10637 16.3153 5.45736 16.6562 5.89043 16.6562ZM5.89043 18.1797H15.9898C16.4227 18.1797 16.7739 18.5207 16.7739 18.9414C16.7739 19.3621 16.4227 19.7031 15.9898 19.7031H5.89043C5.45736 19.7031 5.10637 19.3621 5.10637 18.9414C5.10637 18.5207 5.45736 18.1797 5.89043 18.1797Z" fill="#D7D7D7"/>
</svg>
