<svg width="21" height="28" viewBox="0 0 21 28" fill="none" xmlns="http://www.w3.org/2000/svg">
<path fill-rule="evenodd" clip-rule="evenodd" d="M18.4946 0H1.91598C0.86187 0 0.00430298 0.855179 0.00430298 1.90618V26.0415C0.00430298 27.0925 0.86187 27.9477 1.91598 27.9477H18.4946C19.5485 27.9477 20.4061 27.0925 20.4061 26.0415V1.90618C20.4061 0.855179 19.5485 0 18.4946 0ZM19.2882 26.0415C19.2882 26.4759 18.9324 26.8296 18.4946 26.8296H1.91598C1.47824 26.8296 1.12217 26.4759 1.12217 26.0415V24.2445H19.2882V26.0415ZM1.12217 23.1266H19.2882V4.82086H1.12217V23.1266ZM19.2882 3.70299H1.12217V1.90618C1.12217 1.47155 1.47824 1.11787 1.91598 1.11787H18.4946C18.9324 1.11787 19.2882 1.47155 19.2882 1.90618V3.70299ZM10.9038 26.096H9.50655C9.19753 26.096 8.9475 25.8457 8.9475 25.5372C8.9475 25.2284 9.19753 24.9781 9.50655 24.9781H10.9038C11.2129 24.9781 11.4629 25.2284 11.4629 25.5372C11.4629 25.8457 11.2129 26.096 10.9038 26.096ZM13.3106 1.58379H9.46787C9.15885 1.58379 8.90881 1.83406 8.90881 2.14284C8.90881 2.45139 9.15885 2.70166 9.46787 2.70166H13.3106C13.6196 2.70166 13.8696 2.45139 13.8696 2.14284C13.8696 1.83406 13.6196 1.58379 13.3106 1.58379ZM7.6148 1.92317L7.61733 1.92815L7.61951 1.93483L7.61951 1.93483L7.61951 1.93484C7.62981 1.96628 7.64014 1.99785 7.64527 2.03442C7.65602 2.06786 7.65602 2.10726 7.65602 2.14045C7.65602 2.29138 7.60037 2.43132 7.4941 2.5376C7.39356 2.64387 7.24837 2.69951 7.0972 2.69951C7.06377 2.69951 7.0246 2.69951 6.99117 2.68852C6.9575 2.68279 6.91857 2.67157 6.8849 2.66058C6.85146 2.64387 6.81779 2.62691 6.78985 2.61019C6.75666 2.58798 6.72872 2.56554 6.70627 2.5376C6.6 2.43132 6.53815 2.29138 6.53815 2.14045C6.53815 2.10726 6.54412 2.06786 6.54961 2.03442C6.5585 2.00272 6.56771 1.97477 6.57672 1.94742L6.58304 1.92815L6.58886 1.91665C6.60383 1.88708 6.6186 1.85787 6.63319 1.83334C6.65564 1.79967 6.67785 1.77173 6.70627 1.74952C6.72872 1.72134 6.75666 1.69913 6.78985 1.67692C6.81491 1.66171 6.84459 1.6467 6.87457 1.63153L6.87458 1.63152L6.8849 1.6263C6.90173 1.62068 6.91988 1.61513 6.93803 1.60958C6.95618 1.60403 6.97433 1.59848 6.99117 1.59286C7.1698 1.55943 7.36562 1.6208 7.4941 1.74952C7.52228 1.77173 7.54473 1.79967 7.56718 1.83334C7.58261 1.85966 7.59868 1.89137 7.61479 1.92314L7.6148 1.92316L7.6148 1.92317ZM5.23687 15.6662L3.77177 15.0245C3.56878 14.9357 3.4372 14.7343 3.4372 14.5125V13.435C3.4372 13.2131 3.56878 13.012 3.77177 12.923L5.23687 12.2813C5.30995 12.068 5.39639 11.8591 5.49502 11.657L4.91376 10.169C4.83304 9.96244 4.882 9.72745 5.03937 9.57031L5.80452 8.8054C5.96237 8.64827 6.19713 8.60027 6.40393 8.68003L7.88766 9.26177C8.09328 9.16195 8.30343 9.07526 8.51525 9.00266L9.15121 7.54401C9.24028 7.3403 9.4416 7.20848 9.66369 7.20848H10.7467C10.9695 7.20848 11.1703 7.34054 11.2592 7.54449L11.8942 9.00457C12.1113 9.07693 12.3226 9.1641 12.5268 9.26464L14.0055 8.68075C14.2114 8.59955 14.4483 8.64707 14.6059 8.8054L15.3713 9.57031C15.5284 9.72745 15.5776 9.96244 15.4966 10.169L14.9166 11.6537C15.0181 11.8572 15.1047 12.0678 15.1769 12.2827L16.6386 12.923C16.8416 13.012 16.9732 13.2131 16.9732 13.435V14.5125C16.9732 14.7343 16.8416 14.9357 16.6386 15.0245L15.1769 15.6647C15.1047 15.8799 15.0181 16.0903 14.9166 16.294L15.4966 17.7787C15.5776 17.986 15.5279 18.2217 15.3696 18.3786L14.6042 19.1385C14.4471 19.2944 14.2128 19.3424 14.0065 19.2622L12.5273 18.6823C12.3238 18.7836 12.112 18.8705 11.8942 18.9429L11.2592 20.4032C11.1703 20.6069 10.9695 20.739 10.7467 20.739H9.66369C9.4416 20.739 9.24028 20.6072 9.15121 20.4037L8.51525 18.9448C8.30247 18.872 8.0928 18.7855 7.88647 18.6857L6.40226 19.2629C6.19808 19.3417 5.96285 19.2944 5.80619 19.1385L5.04105 18.3786C4.88271 18.2217 4.83304 17.986 4.91376 17.7787L5.49502 16.2907C5.39639 16.0884 5.30995 15.8797 5.23687 15.6662ZM5.91748 13.2036L4.55507 13.8006V14.1471L5.91748 14.7439C6.06984 14.8105 6.18447 14.9416 6.23032 15.1009C6.3194 15.4095 6.44262 15.708 6.59713 15.9881C6.67737 16.1335 6.68884 16.3071 6.62889 16.4614L6.08847 17.8439L6.33564 18.0891L7.71572 17.5528C7.86856 17.4931 8.03931 17.5038 8.1845 17.5821C8.47872 17.7419 8.77174 17.8625 9.08028 17.9514C9.24028 17.9974 9.37163 18.1125 9.43826 18.2649L10.0295 19.6211H10.3804L10.9721 18.2601C11.04 18.1049 11.1742 17.9884 11.338 17.9437C11.6475 17.8594 11.9427 17.7376 12.2161 17.5824C12.3625 17.4988 12.5382 17.4861 12.6966 17.5478L14.0752 18.0884L14.3222 17.8439L13.7817 16.4614C13.7206 16.3045 13.733 16.1283 13.8166 15.9816C13.9733 15.7063 14.0951 15.4126 14.1779 15.1086C14.2228 14.9457 14.3384 14.8117 14.4929 14.7439L15.8553 14.1471V13.8006L14.4929 13.2036C14.3384 13.136 14.2228 13.002 14.1779 12.8389C14.0951 12.5349 13.9733 12.2412 13.8166 11.9658C13.733 11.8194 13.7206 11.6429 13.7817 11.486L14.3226 10.1026L14.0748 9.85497L12.6975 10.3992C12.5399 10.4611 12.363 10.4489 12.2161 10.3656C11.9422 10.2096 11.6463 10.0878 11.338 10.0038C11.1742 9.95933 11.04 9.84279 10.9721 9.68757L10.3804 8.32635H10.0295L9.43826 9.68255C9.37163 9.83515 9.24028 9.95002 9.08028 9.99611C8.77293 10.0849 8.47991 10.2055 8.18402 10.3656C8.03978 10.4441 7.86856 10.4544 7.71405 10.3944L6.33635 9.8545L6.08799 10.1026L6.62889 11.486C6.68884 11.6406 6.67737 11.8142 6.59713 11.9596C6.44262 12.2397 6.3194 12.5382 6.23032 12.8465C6.18447 13.0061 6.06984 13.1369 5.91748 13.2036ZM10.2053 16.8889C11.8132 16.8889 13.1212 15.5807 13.1212 13.973C13.1212 12.3651 11.8132 11.0571 10.2053 11.0571C8.59717 11.0571 7.2892 12.3651 7.2892 13.973C7.2892 15.5807 8.59717 16.8889 10.2053 16.8889ZM10.2053 12.175C11.1966 12.175 12.0033 12.9815 12.0033 13.973C12.0033 14.9646 11.1966 15.771 10.2053 15.771C9.21401 15.771 8.40731 14.9646 8.40731 13.973C8.40731 12.9815 9.21401 12.175 10.2053 12.175Z" fill="#4B8CEB"/>
</svg>
