<svg width="32" height="32" viewBox="0 0 32 32" fill="none" xmlns="http://www.w3.org/2000/svg">
<g filter="url(#filter0_d)">
<circle cx="16" cy="14" r="12" fill="#FF285C"/>
<circle cx="16" cy="14" r="11.5" stroke="white"/>
</g>
<path fill-rule="evenodd" clip-rule="evenodd" d="M20.2426 9.75737C19.8521 9.36684 19.219 9.36684 18.8284 9.75737L16 12.5858L13.1716 9.75737C12.781 9.36684 12.1479 9.36684 11.7574 9.75737C11.3668 10.1479 11.3668 10.7811 11.7574 11.1716L14.5858 14L11.7574 16.8284C11.3668 17.219 11.3668 17.8521 11.7574 18.2426C12.1479 18.6332 12.781 18.6332 13.1716 18.2426L16 15.4142L18.8284 18.2426C19.219 18.6332 19.8521 18.6332 20.2426 18.2426C20.6332 17.8521 20.6332 17.219 20.2426 16.8284L17.4142 14L20.2426 11.1716C20.6332 10.7811 20.6332 10.1479 20.2426 9.75737Z" fill="white"/>
<defs>
<filter id="filter0_d" x="0" y="0" width="32" height="32" filterUnits="userSpaceOnUse" color-interpolation-filters="sRGB">
<feFlood flood-opacity="0" result="BackgroundImageFix"/>
<feColorMatrix in="SourceAlpha" type="matrix" values="0 0 0 0 0 0 0 0 0 0 0 0 0 0 0 0 0 0 127 0" result="hardAlpha"/>
<feOffset dy="2"/>
<feGaussianBlur stdDeviation="2"/>
<feColorMatrix type="matrix" values="0 0 0 0 0 0 0 0 0 0 0 0 0 0 0 0 0 0 0.5 0"/>
<feBlend mode="normal" in2="BackgroundImageFix" result="effect1_dropShadow"/>
<feBlend mode="normal" in="SourceGraphic" in2="effect1_dropShadow" result="shape"/>
</filter>
</defs>
</svg>
