<svg width="22" height="22" viewBox="0 0 22 22" fill="none" xmlns="http://www.w3.org/2000/svg">
<path fill-rule="evenodd" clip-rule="evenodd" d="M0 2.44444C0 1.1 1.09976 0 2.4439 0H11.7195C11.9956 0 12.2195 0.223858 12.2195 0.5V1.94444C12.2195 2.22059 11.9956 2.44444 11.7195 2.44444H2.9439C2.66776 2.44444 2.4439 2.6683 2.4439 2.94444V19.0556C2.4439 19.3317 2.66776 19.5556 2.9439 19.5556H11.7195C11.9956 19.5556 12.2195 19.7794 12.2195 20.0556V21.5C12.2195 21.7761 11.9956 22 11.7195 22H2.4439C1.09976 22 0 20.9 0 19.5556V2.44444ZM16.1155 9.77778C16.5609 9.77778 16.784 9.23926 16.469 8.92426L14.5769 7.03174C14.3817 6.83648 14.3817 6.51996 14.5769 6.32471L15.5978 5.30367C15.793 5.10836 16.1097 5.10836 16.3049 5.30367L21.6466 10.6465C21.8418 10.8417 21.8418 11.1583 21.6466 11.3535L16.3049 16.6963C16.1097 16.8916 15.793 16.8916 15.5978 16.6963L14.5769 15.6753C14.3817 15.48 14.3817 15.1635 14.5769 14.9683L16.469 13.0757C16.784 12.7607 16.5609 12.2222 16.1155 12.2222H9.77461C9.49846 12.2222 9.27461 11.9984 9.27461 11.7222V10.2778C9.27461 10.0016 9.49846 9.77778 9.77461 9.77778H16.1155Z" fill="#D7D7D7"/>
</svg>
