<svg width="24" height="25" viewBox="0 0 24 25" fill="none" xmlns="http://www.w3.org/2000/svg">
<g clip-path="url(#clip0)">
<path d="M20.9216 19.5763H19.8103V9.33904C19.8103 8.86742 19.7587 8.39576 19.6568 7.93718C19.5343 7.38518 18.9882 7.03723 18.4361 7.15978C17.8845 7.28251 17.5367 7.82948 17.6593 8.38152C17.7276 8.68884 17.7641 9.01938 17.7641 9.33904V19.5763L6.01965 19.5764V9.4062C6.01965 7.14074 7.93688 5.08156 10.2935 4.81599C10.2968 4.81561 10.3001 4.81501 10.3035 4.81459C10.8046 4.75367 11.1976 4.31426 11.2019 3.80848C11.2019 3.80513 11.2021 3.80182 11.2021 3.79847C11.2021 3.32607 11.5853 2.94167 12.0564 2.94167C12.5275 2.94167 12.9108 3.32602 12.9108 3.79857C12.9108 4.28936 13.2982 4.73989 13.7842 4.81133C14.3267 4.89171 14.8489 5.06746 15.3359 5.33373C15.4917 5.4189 15.6597 5.4593 15.8255 5.4593C16.1876 5.4593 16.5385 5.26647 16.7243 4.92606C16.9952 4.42978 16.8128 3.80769 16.317 3.53658C15.8421 3.27696 15.3435 3.07739 14.8275 2.93958C14.461 1.75595 13.3574 0.893799 12.0564 0.893799C10.7649 0.893799 9.66826 1.74367 9.29373 2.91407C7.97532 3.2213 6.75507 3.9233 5.79759 4.93723C4.62119 6.18313 3.97331 7.77023 3.97331 9.4062V19.5764H2.90809C2.34302 19.5764 1.88495 20.0348 1.88495 20.6003C1.88495 21.1658 2.34302 21.6243 2.90809 21.6243H8.58056C8.70878 23.3546 10.1547 24.7236 11.9148 24.7236C13.675 24.7236 15.1209 23.3546 15.2491 21.6242H20.9216C21.4867 21.6242 21.9447 21.1658 21.9447 20.6003C21.9447 20.0348 21.4867 19.5763 20.9216 19.5763ZM11.9148 22.6757C11.2843 22.6757 10.7574 22.2226 10.6408 21.6242H13.1888C13.0722 22.2226 12.5454 22.6757 11.9148 22.6757Z" fill="#4B8CEB"/>
<path d="M17.775 6.99002C18.3401 6.99002 18.7982 6.53158 18.7982 5.96608C18.7982 5.40057 18.3401 4.94214 17.775 4.94214C17.21 4.94214 16.7519 5.40057 16.7519 5.96608C16.7519 6.53158 17.21 6.99002 17.775 6.99002Z" fill="#4B8CEB"/>
</g>
<defs>
<clipPath id="clip0">
<rect width="23.8298" height="23.8298" fill="white" transform="translate(0 0.893677)"/>
</clipPath>
</defs>
</svg>
