<svg width="22" height="25" viewBox="0 0 22 25" fill="none" xmlns="http://www.w3.org/2000/svg">
<path d="M18.2674 12.6363V10.3355C18.2674 6.97898 16.0363 4.13413 12.9795 3.20495V2.16323C12.9795 0.970427 12.009 0 10.8162 0C9.62342 0 8.65299 0.970427 8.65299 2.16323V3.20495C5.5961 4.13413 3.36509 6.97893 3.36509 10.3355V12.6363C3.36509 15.5846 2.24126 18.3803 0.20066 20.5083C0.000681118 20.7169 -0.0555149 21.0246 0.0578385 21.2903C0.171192 21.556 0.432222 21.7285 0.721134 21.7285H7.28338C7.61834 23.3722 9.07511 24.6128 10.8162 24.6128C12.5574 24.6128 14.0141 23.3722 14.3491 21.7285H20.9113C21.2002 21.7285 21.4612 21.556 21.5746 21.2903C21.6879 21.0246 21.6317 20.7169 21.4318 20.5083C19.3912 18.3803 18.2674 15.5846 18.2674 12.6363ZM10.0951 2.16323C10.0951 1.76563 10.4186 1.44216 10.8162 1.44216C11.2138 1.44216 11.5373 1.76563 11.5373 2.16323V2.91931C11.3 2.89643 11.0595 2.88431 10.8162 2.88431C10.573 2.88431 10.3325 2.89643 10.0951 2.91931V2.16323ZM10.8162 23.1706C9.87618 23.1706 9.07468 22.5678 8.77702 21.7285H12.8554C12.5578 22.5678 11.7563 23.1706 10.8162 23.1706ZM2.2753 20.2863C3.91748 18.085 4.80724 15.4211 4.80724 12.6363V10.3355C4.80724 7.0221 7.50287 4.32647 10.8162 4.32647C14.1296 4.32647 16.8252 7.0221 16.8252 10.3355V12.6363C16.8252 15.4211 17.715 18.085 19.3572 20.2863H2.2753Z" fill="#D7D7D7"/>
<path d="M20.1905 10.3354C20.1905 10.7337 20.5134 11.0565 20.9116 11.0565C21.3098 11.0565 21.6327 10.7337 21.6327 10.3354C21.6327 7.44631 20.5076 4.73011 18.4647 2.6872C18.1832 2.40564 17.7266 2.40559 17.445 2.6872C17.1634 2.9688 17.1634 3.42534 17.445 3.70695C19.2155 5.47748 20.1905 7.83151 20.1905 10.3354Z" fill="#D7D7D7"/>
<path d="M0.721078 11.0565C1.11931 11.0565 1.44216 10.7337 1.44216 10.3355C1.44216 7.83159 2.41725 5.47756 4.18773 3.70703C4.46934 3.42542 4.46934 2.96888 4.18773 2.68728C3.90618 2.40567 3.44959 2.40567 3.16798 2.68728C1.12507 4.73019 0 7.44634 0 10.3355C0 10.7337 0.322851 11.0565 0.721078 11.0565Z" fill="#D7D7D7"/>
</svg>
