<svg width="30" height="24" viewBox="0 0 30 24" fill="none" xmlns="http://www.w3.org/2000/svg">
<path d="M29.4669 2.56226C29.0781 2.10277 28.5338 1.82211 27.934 1.77201L6.80769 0.00799704C6.20781 -0.0421004 5.62457 0.144403 5.16502 0.533053C4.70735 0.920181 4.42709 1.46176 4.37541 2.05865L3.95038 6.04629H2.25321C1.0108 6.04629 0 7.05709 0 8.29951V21.5242C0 22.7666 1.0108 23.7774 2.25321 23.7774H23.4531C24.6956 23.7774 25.7064 22.7666 25.7064 21.5242V19.3789L26.4587 19.4417C26.5221 19.447 26.5852 19.4496 26.6478 19.4496C27.8061 19.4496 28.7935 18.5585 28.8916 17.3838L29.992 4.20499C30.0421 3.60517 29.8556 3.02181 29.4669 2.56226ZM2.25321 7.21816H23.4531C24.0494 7.21816 24.5345 7.70326 24.5345 8.29951V9.50454H1.17187V8.29951C1.17187 7.70326 1.65697 7.21816 2.25321 7.21816ZM1.17187 10.6764H24.5345V13.1074H1.17187V10.6764ZM23.4531 22.6055H2.25321C1.65697 22.6055 1.17187 22.1204 1.17187 21.5242V14.2793H24.5345V21.5242C24.5345 22.1204 24.0494 22.6055 23.4531 22.6055ZM28.8242 4.10743L27.7238 17.2862C27.6741 17.8804 27.1502 18.3237 26.5562 18.2739L25.7064 18.2029V8.29951C25.7064 7.05709 24.6956 6.04629 23.4531 6.04629H5.12893L5.54137 2.17678C5.54183 2.17232 5.54224 2.16793 5.5426 2.16342C5.59222 1.56922 6.11582 1.12602 6.71019 1.17582L27.8366 2.93984C28.1244 2.96386 28.3857 3.09857 28.5722 3.31912C28.7587 3.53966 28.8482 3.81956 28.8242 4.10743Z" fill="#D7D7D7"/>
<path d="M22.0824 17.0214H16.4432C16.1196 17.0214 15.8573 17.2837 15.8573 17.6073V21.2863C15.8573 21.61 16.1196 21.8723 16.4432 21.8723H22.0824C22.406 21.8723 22.6684 21.61 22.6684 21.2863V17.6073C22.6684 17.2837 22.406 17.0214 22.0824 17.0214ZM21.4965 20.7004H17.0292V18.1932H21.4965V20.7004Z" fill="#D7D7D7"/>
</svg>
