<svg width="28" height="28" viewBox="0 0 28 28" fill="none" xmlns="http://www.w3.org/2000/svg">
<path fill-rule="evenodd" clip-rule="evenodd" d="M27.2792 4.68163L23.3184 0.720781C22.8536 0.255938 22.2356 0 21.5783 0C21.0894 0 7.97158 0 7.38281 0H2.46094C1.10398 0 0 1.10398 0 2.46094V25.5391C0 26.896 1.10398 28 2.46094 28C3.67325 28 24.5866 28 25.5391 28C26.896 28 28 26.896 28 25.5391V6.42173C28 5.76445 27.744 5.14642 27.2792 4.68163ZM8.20312 1.64062H16.5156V5.74219C16.5156 6.19522 16.8829 6.5625 17.3359 6.5625C17.789 6.5625 18.1562 6.19522 18.1562 5.74219V1.64062H19.7969V7.38281C19.7969 7.83513 19.4289 8.20312 18.9766 8.20312H9.02344C8.57112 8.20312 8.20312 7.83513 8.20312 7.38281V1.64062ZM21.4375 26.3594H6.5625V18.1562H21.4375V26.3594ZM21.4375 16.5156H6.5625V15.6953C6.5625 15.243 6.93049 14.875 7.38281 14.875H20.6172C21.0695 14.875 21.4375 15.243 21.4375 15.6953V16.5156ZM26.3594 25.5391C26.3594 25.9914 25.9914 26.3594 25.5391 26.3594H23.0781V15.6953C23.0781 14.3384 21.9741 13.2344 20.6172 13.2344H7.38281C6.02585 13.2344 4.92188 14.3384 4.92188 15.6953V26.3594H2.46094C2.00862 26.3594 1.64062 25.9914 1.64062 25.5391V2.46094C1.64062 2.00862 2.00862 1.64062 2.46094 1.64062H6.5625V7.38281C6.5625 8.73977 7.66648 9.84375 9.02344 9.84375H18.9766C20.3335 9.84375 21.4375 8.73977 21.4375 7.38281V1.64062H21.5782C21.7973 1.64062 22.0034 1.72594 22.1583 1.88087L26.1191 5.84172C26.274 5.99665 26.3594 6.20266 26.3594 6.42173V25.5391Z" fill="white"/>
</svg>
