<svg width="26" height="26" viewBox="0 0 26 26" fill="none" xmlns="http://www.w3.org/2000/svg">
<path fill-rule="evenodd" clip-rule="evenodd" d="M10.1255 2.22944C5.74018 2.22944 2.18729 5.77133 2.18729 10.1436C2.18729 14.516 5.74018 18.06 10.1255 18.06C14.5086 18.06 18.0625 14.516 18.0625 10.1436C18.0625 5.77133 14.5086 2.22944 10.1255 2.22944ZM25.5049 25.4441C25.4932 25.4569 25.4814 25.4687 25.4696 25.4804C25.4077 25.5424 25.3393 25.6001 25.2677 25.6536C24.5197 26.2136 23.4565 26.0682 22.7951 25.4077L15.8346 18.4458C14.2094 19.5541 12.2454 20.205 10.1276 20.205C4.53487 20.205 0 15.682 0 10.103C0 4.52301 4.53487 0 10.1276 0C15.7225 0 20.2573 4.52301 20.2573 10.103C20.2573 12.2267 19.5959 14.1975 18.4718 15.8252L25.4119 22.7668C26.1407 23.4968 26.2155 24.6981 25.5049 25.4441Z" fill="#4B8CEB"/>
</svg>
