<svg width="26" height="21" viewBox="0 0 26 21" fill="none" xmlns="http://www.w3.org/2000/svg">
<path fill-rule="evenodd" clip-rule="evenodd" d="M25.8086 4.72071L25.8074 4.70862C25.7854 4.49606 25.5662 2.60544 24.6612 1.64382C23.6153 0.512748 22.4295 0.375344 21.8592 0.309462C21.812 0.304022 21.7687 0.298985 21.73 0.293747L21.6846 0.288912C18.2474 0.0350563 13.0564 0.000402945 13.0045 0.000201473L12.9999 0L12.9953 0.000201473C12.9434 0.000402945 7.75241 0.0350563 4.28424 0.288912L4.23842 0.293747C4.20812 0.297883 4.17528 0.301747 4.14001 0.305898L4.11662 0.308656C3.55288 0.374739 2.37976 0.512345 1.33082 1.68431C0.46893 2.63567 0.219786 4.48579 0.194197 4.69371L0.191222 4.72071C0.183486 4.80915 0 6.91474 0 9.0286V11.0046C0 13.1185 0.183486 15.2241 0.191222 15.3127L0.19261 15.326C0.214628 15.5352 0.433621 17.3911 1.33439 18.3532C2.31787 19.4463 3.5614 19.591 4.23028 19.6688L4.23852 19.6697C4.34074 19.6816 4.42868 19.6918 4.48915 19.7026L4.54925 19.7111C6.53387 19.9029 12.7563 19.9974 13.0201 20.0012L13.0281 20.0014L13.036 20.0012C13.088 20.001 18.2787 19.9663 21.716 19.7125L21.7614 19.7077C21.8048 19.7018 21.8536 19.6966 21.9072 19.6909L21.9076 19.6909C22.4684 19.6304 23.6348 19.5047 24.669 18.3489C25.5309 17.3974 25.7802 15.5472 25.8056 15.3395L25.8086 15.3125C25.8163 15.2239 26 13.1185 26 11.0046V9.0286C25.9998 6.91474 25.8163 4.80935 25.8086 4.72071ZM24.4762 11.0046C24.4762 12.9611 24.308 14.9761 24.2921 15.161C24.2274 15.6705 23.9646 16.8411 23.5447 17.3047C22.8972 18.0282 22.2321 18.0999 21.7465 18.1521C21.6878 18.1583 21.6334 18.1644 21.5842 18.1706C18.2597 18.4148 13.2647 18.4523 13.0346 18.4537C12.7765 18.4499 6.64515 18.3546 4.72103 18.173C4.62245 18.1567 4.51593 18.1442 4.40365 18.1313L4.40345 18.1313C3.83397 18.065 3.05452 17.9743 2.45514 17.3047L2.44105 17.2894C2.02846 16.8528 1.77316 15.7582 1.7083 15.1671C1.6962 15.0272 1.52362 12.9885 1.52362 11.0046V9.0286C1.52362 7.07431 1.69144 5.0616 1.7077 4.87282C1.78487 4.27263 2.05266 3.17299 2.45514 2.72854C3.12243 1.9831 3.82602 1.90049 4.29138 1.84589L4.30244 1.84459L4.30246 1.84459C4.34272 1.83985 4.38047 1.8354 4.41556 1.83078C7.75479 1.58784 12.7189 1.54967 12.993 1.54756L12.9999 1.54751C13.1804 1.54872 18.2095 1.58539 21.5525 1.83078C21.5928 1.83592 21.6367 1.84107 21.6839 1.84659L21.684 1.8466L21.6866 1.8469C22.1653 1.90231 22.8887 1.98612 23.5526 2.70538L23.5588 2.71202C23.9713 3.14862 24.2266 4.26236 24.2915 4.86536C24.303 4.99733 24.4762 7.04046 24.4762 9.0286V11.0046ZM17.0019 8.81927L11.2579 5.62713C10.9276 5.44359 10.5372 5.45044 10.2135 5.64527C9.88957 5.84029 9.69637 6.18481 9.69637 6.5672V12.8967C9.69637 13.2773 9.88838 13.6212 10.2101 13.8164C10.3781 13.9183 10.5644 13.9695 10.7511 13.9695C10.9221 13.9695 11.0934 13.9266 11.2511 13.8404L16.9953 10.7032C17.3363 10.5169 17.5492 10.1568 17.5507 9.76337C17.5521 9.36989 17.3419 9.00825 17.0019 8.81927ZM11.22 12.1004V7.36987L15.513 9.75571L11.22 12.1004Z" fill="#D7D7D7"/>
</svg>
