<svg width="22" height="26" viewBox="0 0 22 26" fill="none" xmlns="http://www.w3.org/2000/svg">
<path fill-rule="evenodd" clip-rule="evenodd" d="M10.8336 12.5243C12.5787 12.5243 14.0895 11.9072 15.3244 10.6897C16.5588 9.47229 17.1849 7.98277 17.1849 6.26196C17.1849 4.54175 16.559 3.05203 15.3242 1.83427C14.0893 0.617111 12.5785 0 10.8336 0C9.08837 0 7.5777 0.617111 6.34305 1.83447C5.1084 3.05183 4.48232 4.54155 4.48232 6.26196C4.48232 7.98277 5.1084 9.47249 6.34305 10.6898C7.5781 11.907 9.08898 12.5243 10.8336 12.5243ZM7.43587 2.91179C8.38323 1.97769 9.49456 1.52364 10.8336 1.52364C12.1725 1.52364 13.284 1.97769 14.2316 2.91179C15.1789 3.84608 15.6396 4.94205 15.6396 6.26196C15.6396 7.58228 15.1789 8.67804 14.2316 9.61234C13.284 10.5466 12.1725 11.0007 10.8336 11.0007C9.49496 11.0007 8.38363 10.5464 7.43587 9.61234C6.4883 8.67824 6.0276 7.58228 6.0276 6.26196C6.0276 4.94205 6.4883 3.84608 7.43587 2.91179ZM21.9467 19.9927C21.9111 19.4861 21.8391 18.9335 21.733 18.3499C21.626 17.7619 21.4882 17.2061 21.3232 16.6981C21.1526 16.173 20.9211 15.6545 20.6344 15.1576C20.3372 14.6419 19.988 14.1928 19.5961 13.8232C19.1863 13.4366 18.6845 13.1258 18.1043 12.899C17.5261 12.6735 16.8854 12.5592 16.1999 12.5592C15.9308 12.5592 15.6704 12.6681 15.1677 12.9909C14.8583 13.1898 14.4963 13.4199 14.0924 13.6744C13.7469 13.8914 13.279 14.0948 12.701 14.2789C12.1371 14.4588 11.5645 14.55 10.9992 14.55C10.4343 14.55 9.86172 14.4588 9.2974 14.2789C8.72001 14.095 8.25186 13.8916 7.90704 13.6746C7.50689 13.4225 7.14476 13.1924 6.83071 12.9907C6.32836 12.6679 6.06804 12.559 5.79886 12.559C5.11323 12.559 4.47267 12.6735 3.89467 12.8992C3.31487 13.1256 2.81292 13.4364 2.40271 13.8234C2.01081 14.1932 1.66156 14.6421 1.36461 15.1576C1.07833 15.6545 0.846572 16.1728 0.67597 16.6983C0.511202 17.2063 0.373393 17.7619 0.266364 18.3499C0.16014 18.9327 0.0883187 19.4855 0.0527096 19.9933C0.017704 20.4898 0 21.0066 0 21.5287C0 22.8859 0.43757 23.9846 1.30044 24.7949C2.15264 25.5945 3.28006 26 4.65152 26H17.3485C18.7195 26 19.847 25.5945 20.6994 24.7949C21.5624 23.9852 22 22.8861 22 21.5285C21.9998 21.0046 21.9819 20.4879 21.9467 19.9927ZM19.6339 23.691C19.0708 24.2195 18.3232 24.4764 17.3483 24.4764H4.65152C3.67639 24.4764 2.9288 24.2195 2.36589 23.6912C1.81365 23.1729 1.54527 22.4653 1.54527 21.5287C1.54527 21.0415 1.56157 20.5605 1.59416 20.0987C1.62595 19.6456 1.69093 19.1479 1.7873 18.6191C1.88246 18.0968 2.00357 17.6066 2.14761 17.1629C2.28582 16.7374 2.47433 16.3161 2.7081 15.9102C2.93121 15.5234 3.18792 15.1915 3.47119 14.9241C3.73614 14.674 4.0701 14.4693 4.46361 14.3158C4.82755 14.1737 5.23655 14.096 5.68056 14.0843C5.73468 14.1126 5.83104 14.1668 5.98716 14.2672C6.30483 14.4713 6.67098 14.7041 7.07575 14.959C7.53203 15.2459 8.11989 15.5049 8.82221 15.7285C9.54023 15.9574 10.2725 16.0737 10.9994 16.0737C11.7263 16.0737 12.4588 15.9574 13.1764 15.7287C13.8793 15.5047 14.467 15.2459 14.9238 14.9586C15.3381 14.6976 15.694 14.4715 16.0116 14.2672C16.1677 14.167 16.2641 14.1126 16.3182 14.0843C16.7624 14.096 17.1714 14.1737 17.5356 14.3158C17.9289 14.4693 18.2629 14.6742 18.5278 14.9241C18.8111 15.1913 19.0678 15.5232 19.2909 15.9104C19.5249 16.3161 19.7136 16.7376 19.8516 17.1627C19.9958 17.607 20.1171 18.097 20.2121 18.6189C20.3083 19.1487 20.3734 19.6466 20.4052 20.0989V20.0993C20.438 20.5593 20.4545 21.0401 20.4547 21.5287C20.4545 22.4655 20.1861 23.1729 19.6339 23.691Z" fill="#D7D7D7"/>
</svg>
