<svg width="18" height="18" viewBox="0 0 18 18" fill="none" xmlns="http://www.w3.org/2000/svg">
<path d="M8.34976 1.03149H5.20623C2.62095 1.03149 1 2.86431 1 5.45379V12.4404C1 15.0298 2.61338 16.8626 5.20623 16.8626H12.6249C15.2186 16.8626 16.832 15.0298 16.832 12.4404V9.05216" stroke="#2C2C2C" stroke-width="2" stroke-linecap="round" stroke-linejoin="round"/>
<path fill-rule="#01a85a" clip-rule="evenodd" d="M6.10997 7.86675L12.3928 1.58642C13.1756 0.804528 14.4442 0.804528 15.227 1.58642L16.2501 2.60371C17.0329 3.39401 17.0329 4.66353 16.2501 5.44542L9.93702 11.751C9.59484 12.0957 9.13075 12.2891 8.64649 12.2891H5.49707L5.5761 9.11105C5.58787 8.64023 5.77872 8.19464 6.10997 7.86675Z" stroke="#01a85a" stroke-width="1.5" stroke-linecap="round" stroke-linejoin="round"/>
<path d="M11.4375 2.55322L15.2763 6.39541" stroke="##01a85a" stroke-width="1.5" stroke-linecap="round" stroke-linejoin="round"/>
</svg>
