<svg width="17" height="17" viewBox="0 0 17 17" fill="none" xmlns="http://www.w3.org/2000/svg">
<path fill-rule="evenodd" clip-rule="evenodd" d="M4.77677 0.202393H11.7808C14.5313 0.202393 16.3583 2.16605 16.3546 4.98182V11.5762C16.3546 14.3934 14.5277 16.3556 11.7767 16.3556H4.77677C2.02897 16.3556 0.202148 14.3925 0.202148 11.5762V4.98182C0.202148 2.16788 2.03333 0.202393 4.77677 0.202393ZM11.7808 1.41668H4.77677C2.72392 1.41668 1.41643 2.82006 1.41643 4.98182V11.5762C1.41643 13.7406 2.71991 15.1413 4.77677 15.1413H11.7767C13.8369 15.1413 15.1403 13.7414 15.1403 11.5762L15.1403 4.98102C15.1432 2.81724 13.84 1.41668 11.7808 1.41668Z" fill="#2C2C2C"/>
<path fill-rule="evenodd" clip-rule="evenodd" d="M3.65137 5.69503C3.65137 4.53423 4.59244 3.59351 5.75289 3.59351C6.91324 3.59464 7.85328 4.53468 7.85442 5.69503C7.85442 6.85606 6.91392 7.79655 5.75289 7.79655C4.59244 7.79655 3.65137 6.85583 3.65137 5.69503ZM5.75176 4.80698L5.65623 4.813C5.21176 4.86116 4.86565 5.23763 4.86565 5.69503C4.86565 6.1851 5.26297 6.58227 5.75289 6.58227C6.24329 6.58227 6.64014 6.18543 6.64014 5.69563C6.63966 5.20557 6.24235 4.80827 5.75176 4.80698Z" fill="#2C2C2C"/>
<path d="M12.0044 7.75684C13.0929 7.75684 14.1197 8.31793 15.1933 9.28457C15.3156 9.39465 15.4363 9.50808 15.5603 9.62878L16.0131 10.0845L16.1863 10.2634C16.4199 10.5039 16.4144 10.8883 16.1739 11.122C15.9334 11.3556 15.549 11.3501 15.3154 11.1096L14.7824 10.5653L14.6416 10.4274L14.3809 10.187C13.5102 9.40309 12.7197 8.97112 12.0044 8.97112C11.7953 8.97112 11.5809 9.09503 11.2874 9.41053L11.119 9.60203L10.9322 9.83397L10.7245 10.1088L10.1561 10.8965C10.1159 10.9507 10.0765 11.0032 10.0378 11.0541L9.81284 11.3402C9.19472 12.0964 8.72587 12.3978 8.03687 12.3978C7.50083 12.3978 7.0701 12.2807 6.35643 11.9898L5.82924 11.7727L5.55068 11.6666C4.90771 11.4356 4.64669 11.458 4.34943 11.7031C4.01664 11.9773 3.65591 12.3705 3.28552 12.8498C2.99781 13.2222 2.72153 13.6236 2.46769 14.0253L2.2726 14.3413L2.14834 14.5538C1.98414 14.8462 1.61402 14.9501 1.32166 14.7859C1.0293 14.6217 0.925403 14.2516 1.0896 13.9592L1.22913 13.7203L1.36289 13.5015C1.38776 13.4615 1.41388 13.4198 1.44121 13.3766C1.71406 12.9448 2.01136 12.5129 2.32465 12.1074C2.74586 11.5623 3.16423 11.1063 3.57709 10.7661C4.37299 10.1098 4.99189 10.1365 6.26189 10.6382L6.62501 10.7867C7.31775 11.0779 7.66599 11.1836 8.03687 11.1836C8.28146 11.1836 8.55728 10.9698 8.99693 10.4122L9.19578 10.1518L9.50318 9.72573C9.59323 9.59897 9.67939 9.47937 9.76227 9.36664L10.0017 9.04877C10.7329 8.10567 11.2244 7.75684 12.0044 7.75684Z" fill="#2C2C2C"/>
</svg>
