<svg width="22" height="22" viewBox="0 0 22 22" fill="none" xmlns="http://www.w3.org/2000/svg">
<path d="M13.242 8.75799C12.752 8.26799 12.19 7.87999 11.583 7.58899C11.208 7.96599 11 8.46799 11 8.99999C11 9.21299 11.04 9.41499 11.102 9.60799C11.361 9.76899 11.607 9.95099 11.828 10.172C12.583 10.928 13 11.932 13 13C13 14.068 12.584 15.073 11.829 15.829L8.829 18.828C7.317 20.34 4.683 20.34 3.172 18.828C2.416 18.072 2 17.068 2 16C2 14.932 2.416 13.928 3.171 13.172L5.275 11.068C5.098 10.401 5 9.70899 5 8.99999C5 8.83799 5.013 8.67699 5.023 8.51699C4.934 8.59599 4.843 8.67299 4.757 8.75799L1.757 11.758C0.624 12.891 0 14.397 0 16C0 17.603 0.624 19.109 1.757 20.242C2.891 21.376 4.397 22 6 22C7.603 22 9.109 21.376 10.243 20.242L13.243 17.243C14.375 16.109 15 14.603 15 13C15 11.397 14.375 9.89099 13.242 8.75799Z" fill="#FF285C"/>
<path d="M20.243 1.758C19.109 0.624 17.603 0 16 0C14.397 0 12.891 0.624 11.757 1.758L8.757 4.757C7.625 5.891 7 7.397 7 9C7 10.603 7.624 12.109 8.757 13.242C9.247 13.732 9.809 14.12 10.416 14.411C10.792 14.034 11 13.532 11 13C11 12.782 10.959 12.575 10.894 12.378C10.636 12.223 10.391 12.046 10.173 11.828C9.417 11.072 9 10.068 9 9C9 7.932 9.416 6.927 10.171 6.171L13.171 3.172C13.927 2.416 14.932 2 16 2C17.068 2 18.073 2.416 18.829 3.172C19.584 3.928 20 4.932 20 6C20 7.068 19.584 8.072 18.829 8.828L16.722 10.935C16.9 11.601 17 12.292 17 13C17 13.162 16.988 13.322 16.979 13.482C17.068 13.403 17.159 13.327 17.244 13.242L20.244 10.242C21.376 9.109 22 7.603 22 6C22 4.397 21.376 2.891 20.243 1.758Z" fill="#FF285C"/>
</svg>
