<svg width="18" height="18" viewBox="0 0 18 18" fill="none" xmlns="http://www.w3.org/2000/svg">
<path fill-rule="evenodd" clip-rule="evenodd" d="M7.15179 2.07604C4.33269 2.07604 2.04869 4.35296 2.04869 7.16374C2.04869 9.97451 4.33269 12.2528 7.15179 12.2528C9.96952 12.2528 12.2542 9.97451 12.2542 7.16374C12.2542 4.35296 9.96952 2.07604 7.15179 2.07604ZM17.0386 16.9997C17.031 17.008 17.0235 17.0155 17.0159 17.0231C16.9761 17.0629 16.9321 17.1 16.8861 17.1344C16.4053 17.4944 15.7218 17.401 15.2966 16.9764L10.822 12.5008C9.77719 13.2133 8.51464 13.6317 7.15317 13.6317C3.55785 13.6317 0.642578 10.7241 0.642578 7.13763C0.642578 3.55047 3.55785 0.642822 7.15317 0.642822C10.7499 0.642822 13.6651 3.55047 13.6651 7.13763C13.6651 8.50282 13.2399 9.76977 12.5173 10.8162L16.9788 15.2786C17.4473 15.7479 17.4954 16.5202 17.0386 16.9997Z" fill="#4B8CEB"/>
</svg>
