<svg width="48" height="48" viewBox="0 0 48 48" fill="none" xmlns="http://www.w3.org/2000/svg">
<circle cx="24" cy="24" r="24" fill="#FF285C"/>
<path d="M35.71 14.29C35.575 14.1557 35.4045 14.0627 35.2185 14.0219C35.0325 13.9812 34.8388 13.9944 34.66 14.06L12.66 22.06C12.4703 22.132 12.3069 22.26 12.1917 22.427C12.0764 22.594 12.0146 22.7921 12.0146 22.995C12.0146 23.1979 12.0764 23.3961 12.1917 23.5631C12.3069 23.7301 12.4703 23.858 12.66 23.93L22.26 27.77L26.1 37.37C26.1721 37.5514 26.2958 37.7077 26.4557 37.8197C26.6157 37.9316 26.8049 37.9943 27 38C27.2021 37.9959 27.3982 37.9306 27.5624 37.8128C27.7266 37.6949 27.8513 37.5301 27.92 37.34L35.92 15.34C35.9881 15.1631 36.0046 14.9704 35.9674 14.7845C35.9302 14.5986 35.8409 14.4271 35.71 14.29ZM27 34.2L24.21 27.2L29 22.41L27.59 21L22.76 25.83L15.8 23L33.33 16.67L27 34.2Z" fill="white"/>
</svg>
