<svg width="361" height="325" viewBox="0 0 361 325" fill="none" xmlns="http://www.w3.org/2000/svg">
<path d="M120.858 47.4297C120.858 47.9874 120.407 48.4395 119.849 48.4395C119.292 48.4395 118.84 47.9874 118.84 47.4297C118.84 46.8719 119.292 46.4199 119.849 46.4199C120.407 46.4217 120.858 46.8737 120.858 47.4297Z" fill="url(#paint0_linear)"/>
<path d="M316.482 183.89C316.482 184.763 315.775 185.47 314.904 185.47C314.031 185.47 313.326 184.763 313.326 183.89C313.326 183.018 314.033 182.311 314.904 182.311C315.775 182.311 316.482 183.018 316.482 183.89Z" fill="url(#paint1_linear)"/>
<path d="M30.0928 71.517C30.0928 72.0748 29.641 72.5268 29.0835 72.5268C28.526 72.5268 28.0742 72.0748 28.0742 71.517C28.0742 70.9592 28.526 70.5072 29.0835 70.5072C29.641 70.5072 30.0928 70.9592 30.0928 71.517Z" fill="url(#paint2_linear)"/>
<path d="M212.796 49.449C212.796 50.0068 212.344 50.4588 211.787 50.4588C211.229 50.4588 210.777 50.0068 210.777 49.449C210.777 48.8913 211.229 48.4392 211.787 48.4392C212.344 48.4392 212.796 48.8913 212.796 49.449Z" fill="url(#paint3_linear)"/>
<path d="M171.271 115.176C171.271 115.733 170.819 116.186 170.261 116.186C169.704 116.186 169.252 115.733 169.252 115.176C169.252 114.618 169.704 114.166 170.261 114.166C170.819 114.166 171.271 114.618 171.271 115.176Z" fill="url(#paint4_linear)"/>
<path d="M78.0887 105.327C77.8701 105.327 77.6934 105.15 77.6934 104.931V102.134C77.6934 101.915 77.8701 101.738 78.0887 101.738C78.3073 101.738 78.484 101.915 78.484 102.134V104.931C78.484 105.15 78.3073 105.327 78.0887 105.327Z" fill="url(#paint5_linear)"/>
<path d="M79.4849 103.929H76.6883C76.4697 103.929 76.293 103.752 76.293 103.533C76.293 103.315 76.4697 103.138 76.6883 103.138H79.4849C79.7035 103.138 79.8802 103.315 79.8802 103.533C79.8802 103.75 79.7035 103.929 79.4849 103.929Z" fill="url(#paint6_linear)"/>
<path d="M337.311 48.0911C337.093 48.0911 336.916 47.9143 336.916 47.6955V44.8976C336.916 44.6789 337.093 44.5021 337.311 44.5021C337.53 44.5021 337.707 44.6789 337.707 44.8976V47.6955C337.708 47.9124 337.53 48.0911 337.311 48.0911Z" fill="url(#paint7_linear)"/>
<path d="M338.708 46.6912H335.911C335.692 46.6912 335.516 46.5144 335.516 46.2956C335.516 46.0769 335.692 45.9001 335.911 45.9001H338.708C338.926 45.9001 339.103 46.0769 339.103 46.2956C339.105 46.5144 338.928 46.6912 338.708 46.6912Z" fill="url(#paint8_linear)"/>
<path d="M293.413 32.9133C293.194 32.9133 293.016 32.7365 293.016 32.5177V29.7198C293.016 29.5011 293.194 29.3243 293.413 29.3243C293.631 29.3243 293.81 29.5011 293.81 29.7198V32.5177C293.808 32.7365 293.631 32.9133 293.413 32.9133Z" fill="url(#paint9_linear)"/>
<path d="M294.809 31.5153H292.012C291.794 31.5153 291.615 31.3385 291.615 31.1198C291.615 30.901 291.794 30.7242 292.012 30.7242H294.809C295.028 30.7242 295.206 30.901 295.206 31.1198C295.206 31.3385 295.028 31.5153 294.809 31.5153Z" fill="url(#paint10_linear)"/>
<path d="M359.171 122.241C358.952 122.241 358.773 122.064 358.773 121.845V119.047C358.773 118.828 358.952 118.652 359.171 118.652C359.389 118.652 359.568 118.828 359.568 119.047V121.845C359.568 122.064 359.389 122.241 359.171 122.241Z" fill="url(#paint11_linear)"/>
<path d="M360.573 120.843H357.776C357.557 120.843 357.379 120.666 357.379 120.447C357.379 120.228 357.557 120.052 357.776 120.052H360.573C360.791 120.052 360.97 120.228 360.97 120.447C360.968 120.666 360.791 120.843 360.573 120.843Z" fill="url(#paint12_linear)"/>
<path d="M224.509 22.5816C224.29 22.5816 224.111 22.4047 224.111 22.186V19.3881C224.111 19.1694 224.29 18.9926 224.509 18.9926C224.727 18.9926 224.906 19.1694 224.906 19.3881V22.186C224.906 22.4029 224.727 22.5816 224.509 22.5816Z" fill="url(#paint13_linear)"/>
<path d="M225.905 21.182H223.108C222.889 21.182 222.711 21.0052 222.711 20.7865C222.711 20.5677 222.889 20.3909 223.108 20.3909H225.905C226.123 20.3909 226.302 20.5677 226.302 20.7865C226.302 21.0052 226.125 21.182 225.905 21.182Z" fill="url(#paint14_linear)"/>
<path d="M286.649 137.134C286.649 137.692 286.198 138.144 285.64 138.144C285.083 138.144 284.631 137.692 284.631 137.134C284.631 136.576 285.083 136.124 285.64 136.124C286.198 136.124 286.649 136.578 286.649 137.134Z" fill="url(#paint15_linear)"/>
<path d="M318.278 98.011C318.059 98.011 317.881 97.8342 317.881 97.6154V94.8175C317.881 94.5988 318.059 94.422 318.278 94.422C318.497 94.422 318.675 94.5988 318.675 94.8175V97.6154C318.675 97.8342 318.497 98.011 318.278 98.011Z" fill="url(#paint16_linear)"/>
<path d="M319.674 96.613H316.878C316.659 96.613 316.48 96.4362 316.48 96.2175C316.48 95.9988 316.659 95.822 316.878 95.822H319.674C319.893 95.822 320.071 95.9988 320.071 96.2175C320.069 96.4344 319.893 96.613 319.674 96.613Z" fill="url(#paint17_linear)"/>
<path d="M12.3972 187.264C12.1785 187.264 12 187.087 12 186.868V184.07C12 183.851 12.1785 183.675 12.3972 183.675C12.6158 183.675 12.7943 183.851 12.7943 184.07V186.868C12.7925 187.087 12.6158 187.264 12.3972 187.264Z" fill="url(#paint18_linear)"/>
<path d="M13.7915 185.866H10.9968C10.7782 185.866 10.5996 185.689 10.5996 185.47C10.5996 185.251 10.7782 185.075 10.9968 185.075H13.7933C14.0119 185.075 14.1905 185.251 14.1905 185.47C14.1887 185.689 14.0119 185.866 13.7915 185.866Z" fill="url(#paint19_linear)"/>
<path d="M63.3268 155.61C63.1082 155.61 62.9297 155.433 62.9297 155.214V152.416C62.9297 152.198 63.1082 152.021 63.3268 152.021C63.5455 152.021 63.724 152.198 63.724 152.416V155.214C63.7222 155.433 63.5455 155.61 63.3268 155.61Z" fill="url(#paint20_linear)"/>
<path d="M64.723 154.212H61.9265C61.7078 154.212 61.5293 154.035 61.5293 153.816C61.5293 153.598 61.7078 153.421 61.9265 153.421H64.723C64.9416 153.421 65.1202 153.598 65.1202 153.816C65.1202 154.035 64.9416 154.212 64.723 154.212Z" fill="url(#paint21_linear)"/>
<path opacity="0.1" d="M175.575 324.816C272.543 324.816 351.151 316.421 351.151 306.065C351.151 295.709 272.543 287.314 175.575 287.314C78.6078 287.314 0 295.709 0 306.065C0 316.421 78.6078 324.816 175.575 324.816Z" fill="#4B4B4B"/>
<path d="M226.26 172.634C226.648 173.591 226.9 174.13 226.925 174.192C227.027 173.665 227.126 173.141 227.226 172.634C231.628 150.075 237.51 147.719 255.155 127.985C273.199 107.802 262.823 88.9987 262.823 88.9987C202.37 106.473 222.15 162.549 226.26 172.634Z" fill="url(#paint22_linear)"/>
<path d="M226.26 172.633C226.648 173.59 226.899 174.13 226.925 174.192C227.027 173.665 227.125 173.14 227.225 172.633C225.267 153.13 237.025 130.247 240.722 126.14C244.544 121.888 246.901 116.039 247.79 113.835C247.94 113.47 248.08 113.122 248.127 113.04L247.273 112.559C247.198 112.692 247.102 112.935 246.883 113.469C246.014 115.627 243.702 121.359 239.993 125.479C235.311 130.688 224.461 153.682 226.26 172.633Z" fill="url(#paint23_linear)"/>
<path d="M220.529 166.763C213.947 181.133 210.25 194.729 215.096 200.794C215.382 201.153 215.696 201.481 216.035 201.782C219.768 205.07 227.11 205.144 239.504 200.247C272.49 187.21 274.057 164.71 280.729 142.739C287.305 121.043 310.281 124.71 310.867 124.807C257.332 106.151 231.695 142.402 220.529 166.763Z" fill="url(#paint24_linear)"/>
<path d="M215.092 200.794C215.378 201.153 215.691 201.481 216.03 201.782C222.226 198.047 234.092 190.129 239.685 181.239C242.323 177.043 244.542 172.328 246.894 167.337C251.332 157.897 255.932 148.138 263.956 140.652L263.061 139.688C254.856 147.352 250.206 157.226 245.71 166.779C243.378 171.735 241.177 176.414 238.575 180.537C233.121 189.21 221.133 197.157 215.092 200.794Z" fill="url(#paint25_linear)"/>
<path d="M39.5149 211.479H44.6762L46.3979 199.412H38.7461L39.5149 211.479Z" fill="#FDA893"/>
<path d="M49.7078 199.055C49.7042 199.111 49.7006 199.17 49.6951 199.226C49.5894 200.569 49.5457 202.11 48.6311 203.138C47.9771 203.874 46.9751 204.304 45.953 204.439C43.5299 204.758 41.0887 203.468 39.6877 201.617C38.2867 199.769 37.7875 197.456 37.7055 195.203C37.6363 193.297 37.8968 191.251 39.2267 189.788C41.3966 187.398 46.1388 187.05 48.3487 189.514C49.3763 190.659 49.6113 192.01 49.768 193.53C49.9574 195.378 49.8335 197.206 49.7078 199.055Z" fill="#FDA893"/>
<path opacity="0.15" d="M44.6942 204.463C43.6703 204.503 42.6428 204.151 41.772 203.603C40.9048 203.045 40.1578 202.281 39.6914 201.372C40.3819 202.119 41.1216 202.781 41.9596 203.307C42.7904 203.843 43.7031 204.23 44.6942 204.463Z" fill="#4B4B4B"/>
<path d="M48.7759 185.397C48.0344 185.381 47.3549 185.793 46.7682 186.245C46.1798 186.697 45.6187 187.212 44.9209 187.464C43.8551 187.85 42.6818 187.557 41.5596 187.391C40.5831 187.247 39.5737 187.207 38.6246 187.477C37.6754 187.746 36.9812 188.919 36.5604 189.812C36.2944 190.379 33.5015 188.922 34.172 194.232C34.3104 195.32 36.1304 198.249 36.5531 198.703C36.9758 199.157 38.3804 200.63 38.9908 200.528C40.0201 200.354 39.8416 198.056 40.0802 197.041C40.3171 196.025 40.3826 194.914 41.013 194.082C41.5978 193.31 42.5816 192.925 43.5454 192.821C44.5091 192.715 45.4802 192.852 46.4476 192.923C47.415 192.994 48.4152 192.996 49.317 192.639C50.9257 192.004 49.5429 185.413 48.7759 185.397Z" fill="#333333"/>
<path d="M38.7458 197.124C38.5381 196.647 38.5071 196.067 38.7749 195.621C38.9917 195.258 39.398 195.015 39.8207 194.995C40.2433 194.977 40.6696 195.183 40.9174 195.526C41.1834 195.894 41.2362 196.372 41.2417 196.825C41.2454 197.146 41.2308 197.473 41.1196 197.772C40.9101 198.337 40.3344 198.672 39.7605 198.38C39.3288 198.162 38.9334 197.555 38.7458 197.124Z" fill="#FDA893"/>
<path d="M43.2078 207.221L57.6241 221.688L54.1025 222.28L63.587 206.41L66.0465 207.729L58.0832 224.417C57.5658 225.501 56.2668 225.961 55.1828 225.443C55.0134 225.361 54.8586 225.262 54.7201 225.146L54.5598 225.009L38.9902 211.792L43.2078 207.221Z" fill="#FDA893"/>
<path d="M63.4512 206.734C63.7099 205.814 64.2637 204.979 65.0089 204.379C65.2785 205.243 65.5682 206.069 65.8378 206.933C65.9763 207.38 66.0947 207.926 65.774 208.265C65.5026 208.552 65.0252 208.537 64.6755 208.355C64.0542 208.03 63.7081 207.387 63.4512 206.734Z" fill="#FDA893"/>
<path d="M66.6209 202.027L65.2235 202.415L63.8262 202.803C64.4347 202.927 64.7389 204.046 64.8865 204.921C65.0432 205.851 65.2326 206.775 65.4859 207.685L65.5478 207.909C65.71 208.494 66.2802 208.91 66.8778 208.806C67.5664 208.687 67.9836 208.005 67.8015 207.349L67.7213 207.061C67.4681 206.154 67.1547 205.262 66.8086 204.385C66.4806 203.562 66.1636 202.446 66.6209 202.027Z" fill="url(#paint26_linear)"/>
<path d="M66.849 202.603L62.595 203.787C62.3071 203.868 62.0084 203.698 61.9282 203.41L60.5472 198.443C60.4671 198.155 60.6365 197.856 60.9244 197.776L65.1784 196.593L66.849 202.603Z" fill="url(#paint27_linear)"/>
<path d="M65.1797 196.589C65.1797 196.589 71.3558 193.372 73.1084 189.255L77.4262 204.786C77.4262 204.786 70.9404 201.463 66.8521 202.601L65.1797 196.589Z" fill="url(#paint28_linear)"/>
<path d="M77.6163 196.367C78.8096 200.656 78.8369 204.394 77.6782 204.717C76.5195 205.04 74.6139 201.824 73.4224 197.535C72.2309 193.246 72.2017 189.508 73.3604 189.185C74.5173 188.863 76.423 192.078 77.6163 196.367Z" fill="url(#paint29_linear)"/>
<path d="M74.4211 199.046L73.7489 199.234L72.6758 195.377L73.348 195.189C74.412 194.892 75.5161 195.516 75.813 196.582C76.11 197.647 75.4869 198.749 74.4211 199.046Z" fill="url(#paint30_linear)"/>
<path d="M65.2632 206.242C65.2031 206.052 65.2085 205.844 65.3051 205.668C65.265 205.742 64.8533 204.957 64.8369 204.869C64.784 204.592 64.795 204.293 64.9589 204.058C65.316 203.55 66.2761 203.119 66.8518 203.447C67.034 203.551 67.1707 203.717 67.2964 203.885C67.6607 204.372 67.9704 204.915 68.0925 205.511C68.2146 206.107 68.1308 206.763 67.7737 207.253C67.4148 207.746 66.7571 208.03 66.1723 207.862C65.9354 207.793 65.7059 207.64 65.6221 207.407C65.5383 207.173 65.6512 206.867 65.8917 206.805C65.5911 206.77 65.3543 206.526 65.2632 206.242Z" fill="#FDA893"/>
<path d="M42.2058 215.861C40.9979 214.856 39.6898 213.661 39.5987 212.077C39.5258 210.81 40.2691 209.656 41.058 208.677C41.7157 207.862 42.5118 207.048 43.5375 206.9C44.9112 206.701 46.1319 207.751 47.1175 208.75C50.3003 211.982 53.2189 215.471 56.132 218.956C56.4326 219.317 56.7514 219.719 56.7551 220.191C56.7587 220.605 56.5201 220.975 56.2759 221.305C55.631 222.18 54.8895 222.98 54.0697 223.686C53.0166 224.592 52.6723 224.562 51.6247 223.691C49.6353 222.038 47.6476 220.383 45.6582 218.728C44.5049 217.775 43.3554 216.818 42.2058 215.861Z" fill="url(#paint31_linear)"/>
<path d="M29.9698 241.283L27.4902 273.059L10.332 299.314V299.316V299.317L12.6768 301.062L18.9275 293.641L18.9239 293.64L33.5752 276.245L33.9906 275.753L34.2165 274.694L41.0157 242.889L29.9698 241.283Z" fill="#FDA893"/>
<path d="M58.2683 307.689L59.1665 307.56L58.1754 297.907L58.1462 297.626L57.2517 288.24L56.3772 278.569L55.5191 268.896L55.5027 268.704L55.3078 268.112L52.9922 261.047C52.2252 258.69 51.4364 256.341 50.693 253.975C49.1809 249.252 47.6779 244.524 46.2459 239.768L35.8887 243.933C38.1441 248.357 40.3303 252.81 42.5056 257.266C43.606 259.49 44.6609 261.73 45.7376 263.963L48.8639 270.48L50.6785 279.4L52.5969 288.92L54.3732 297.958H54.3714L54.4697 298.446L56.2697 307.981H56.2715V307.983L58.2683 307.689Z" fill="#FDA893"/>
<path d="M55.9961 307.41C55.9961 307.41 56.0945 307.984 56.2165 308.629C56.3477 309.333 56.8323 309.83 57.3898 309.838L63.7463 309.929C64.628 309.942 65.0926 308.569 64.4841 307.738C63.7918 306.792 62.2797 306.017 59.0204 306.562L55.9961 307.41Z" fill="#333333"/>
<path d="M10.3774 299.328C10.3774 299.328 10.0349 299.8 9.65775 300.336C9.24601 300.921 9.22779 301.616 9.6122 302.02L13.9865 306.635C14.5931 307.277 15.8994 306.65 16.0688 305.635C16.262 304.479 15.7609 302.855 13.0956 300.901L10.3774 299.328Z" fill="#333333"/>
<path d="M57.3451 272.942C57.1811 270.184 56.6874 267.459 55.8986 264.814L55.9004 264.812L50.2745 245.181L35.8418 246.383L45.31 267.362L45.9604 269.202C46.4249 270.514 46.8257 271.848 47.1646 273.199L54.9986 304.421L59.167 303.575L57.3451 272.942Z" fill="url(#paint32_linear)"/>
<path d="M42.3663 244.859L27.6548 245.296L25.9587 267.997V271.407C25.9587 272.253 25.7273 273.082 25.2882 273.806L11.6152 296.324L14.9529 299.33L33.3845 279.077C34.9914 277.311 36.0718 275.131 36.5017 272.782L37.3124 268.363L42.3663 244.859Z" fill="url(#paint33_linear)"/>
<g opacity="0.15">
<path opacity="0.15" d="M48.6098 221.188C48.3803 220.009 48.2436 218.844 48.1088 217.692C47.9667 216.551 47.8465 215.381 47.5896 214.364C47.278 213.316 46.9009 212.175 46.5894 211.058C46.2687 209.931 45.755 208.497 45.5801 207.306C46.3999 208.243 47.0594 209.625 47.5659 210.691C48.0669 211.77 48.5315 212.818 48.8794 214.018C49.1928 215.276 49.1928 216.466 49.1473 217.66C49.0853 218.846 48.9323 220.027 48.6098 221.188Z" fill="#4B4B4B"/>
</g>
<path d="M39.0861 204.754C39.0861 204.754 40.243 207.372 45.3588 206.615C45.3588 206.615 48.6672 213.631 48.5816 216.509C48.4942 219.389 48.7966 227.506 48.7966 227.506C48.7966 227.506 49.6729 240.506 50.6786 245.101C50.7605 245.473 50.5565 245.841 50.1994 245.974C47.4794 246.987 36.3934 250.593 27.6722 245.788C27.3825 245.629 27.235 245.294 27.3006 244.97L29.2171 228.209L31.8133 210.571C31.8133 210.571 35.0453 205.786 39.0861 204.754Z" fill="url(#paint34_linear)"/>
<path d="M15.1125 237.001C14.9011 237.389 14.688 237.788 14.5532 238.209C14.4056 238.665 14.4056 239.154 14.34 239.628C14.2671 240.158 14.1086 240.677 13.8754 241.161C13.6987 241.525 13.4728 241.877 13.1485 242.117C13.0592 242.185 12.9536 242.243 12.8424 242.238C12.6384 242.227 12.5109 241.997 12.5109 241.793C12.5127 241.589 12.6001 241.397 12.6439 241.197C12.6876 240.998 12.6694 240.807 12.5109 240.677C12.0171 241.326 11.5234 241.973 11.0315 242.622C10.8329 242.883 10.6344 243.144 10.4194 243.392C10.3119 243.515 10.1935 243.641 10.0386 243.694C9.88376 243.747 9.68153 243.701 9.6123 243.552C9.53578 243.388 9.64509 243.202 9.75076 243.056C10.0914 242.579 10.4321 242.101 10.7728 241.623C10.8821 241.47 11.201 241.086 10.8985 241.091C10.3975 241.664 9.89469 242.236 9.39368 242.808C9.20421 243.025 8.99105 243.255 8.70866 243.306C8.55563 243.333 8.36798 243.28 8.32061 243.133C8.2787 243 8.3698 242.865 8.45725 242.755C9.00745 242.059 9.55764 241.363 10.1078 240.667C10.1552 240.606 10.2026 240.544 10.2172 240.47C10.2299 240.402 10.1989 240.28 10.1151 240.286C10.055 240.289 9.88922 240.448 9.84185 240.492C9.66878 240.65 9.51574 240.836 9.3372 240.991C8.99105 241.295 8.63214 241.587 8.2532 241.849C8.15118 241.919 8.04733 241.988 7.92709 242.017C7.80684 242.046 7.67021 242.03 7.58093 241.944C7.47709 241.844 7.46798 241.673 7.52081 241.538C7.57365 241.403 7.67749 241.294 7.7777 241.19C8.34976 240.597 8.92 240.005 9.49206 239.412C9.53578 239.367 9.61048 239.34 9.62505 239.278C9.63963 239.216 9.5959 239.081 9.53396 239.068C8.89267 239.36 8.2204 239.582 7.53174 239.73C7.44065 239.75 7.33134 239.764 7.26393 239.699C7.20928 239.648 7.20199 239.56 7.22567 239.489C7.25118 239.418 7.30219 239.36 7.35503 239.307C7.67385 238.973 8.14024 238.889 8.56109 238.7C8.95279 238.523 9.29348 238.231 9.66513 238.016C9.99671 237.825 10.2755 237.557 10.5761 237.322C11.1445 236.879 11.8003 236.553 12.4945 236.365C12.8989 236.256 13.1941 235.845 13.502 235.565C14.0922 235.902 14.6953 236.46 15.1125 237.001Z" fill="#FDA893"/>
<path d="M40.3782 211.894L26.8874 224.894C25.7269 225.949 24.7321 227.149 23.6627 228.284L20.5 231.733L14.1636 238.641L12.0156 236.859L17.6798 229.303L20.5164 225.521L21.9356 223.629C22.1779 223.317 22.3984 222.988 22.6571 222.692L23.4332 221.806L35.8782 207.602L40.3782 211.894Z" fill="#FDA893"/>
<path d="M33.1958 209.062C34.2015 207.855 35.3984 206.549 36.9834 206.459C38.2496 206.388 39.4029 207.134 40.3794 207.925C41.1919 208.583 42.0063 209.381 42.152 210.407C42.347 211.782 41.2976 213.001 40.2956 213.985C37.0618 217.164 33.5693 220.079 30.0804 222.988C29.7197 223.289 29.3171 223.606 28.8434 223.609C28.4299 223.613 28.06 223.373 27.7303 223.128C26.8576 222.481 26.0596 221.738 25.3546 220.915C24.4509 219.862 24.4801 219.516 25.3527 218.469C27.0088 216.481 28.6649 214.496 30.3228 212.509C31.2792 211.361 32.2375 210.21 33.1958 209.062Z" fill="url(#paint35_linear)"/>
<path d="M200.041 47.8851H115.215C108.287 47.8851 102.012 50.6958 97.4724 55.238C92.9323 59.7803 90.123 66.0579 90.123 72.9898V284.13C90.123 291.33 93.1528 297.823 98.0062 302.4C102.499 306.637 108.555 309.235 115.215 309.235H200.041C206.703 309.235 212.757 306.637 217.25 302.4C222.103 297.823 225.133 291.33 225.133 284.13V72.9898C225.133 66.2894 222.51 60.2014 218.232 55.6992C213.661 50.8853 207.201 47.8851 200.041 47.8851Z" fill="url(#paint36_linear)"/>
<path d="M203.11 54.7205H185.861C184.904 58.2749 181.663 60.8942 177.806 60.8942H137.451C133.596 60.8942 130.353 58.2767 129.396 54.7205H112.147C107.485 54.7205 103.249 56.5469 100.115 59.5235C96.7614 62.7096 94.6699 67.2137 94.6699 72.2062V285.428C94.6699 290.257 96.6266 294.629 99.7893 297.794C102.952 300.958 107.321 302.916 112.149 302.916H203.112C208.468 302.916 213.263 300.504 216.468 296.707C219.039 293.663 220.589 289.726 220.589 285.428V72.208C220.589 67.5363 218.758 63.2929 215.776 60.156C212.591 56.8076 208.095 54.7205 203.11 54.7205Z" fill="url(#paint37_linear)"/>
<path d="M202.58 303.418H113.6C110.365 303.57 107.754 302.924 105.77 302.077C102.611 300.726 101.035 298.858 101.035 298.858V267.279H214.252V298.858C214.252 298.858 212.758 300.445 210.016 301.747C208.109 302.653 205.604 303.418 202.58 303.418Z" fill="url(#paint38_linear)"/>
<path d="M150.096 226.628H103.475C102.222 226.628 101.205 227.645 101.205 228.899V230.131C101.205 231.386 102.222 232.404 103.475 232.404H150.096C151.35 232.404 152.366 231.387 152.366 230.133V228.901C152.366 227.645 151.35 226.628 150.096 226.628Z" fill="url(#paint39_linear)"/>
<path d="M201.039 236.404H104.091C102.497 236.404 101.205 237.696 101.205 239.291C101.205 240.886 102.497 242.178 104.091 242.178H201.039C202.633 242.178 203.925 240.886 203.925 239.291C203.925 237.696 202.633 236.404 201.039 236.404Z" fill="url(#paint40_linear)"/>
<path d="M154.668 248.626H123.246C121.168 248.626 119.482 250.312 119.482 252.392C119.482 254.472 121.168 256.158 123.246 256.158H154.668C156.747 256.158 158.432 254.472 158.432 252.392C158.432 250.312 156.747 248.626 154.668 248.626Z" fill="url(#paint41_linear)"/>
<path d="M206.756 258.415H120.778C120.062 258.415 119.482 258.994 119.482 259.711C119.482 260.427 120.062 261.007 120.778 261.007H206.756C207.472 261.007 208.052 260.427 208.052 259.711C208.052 258.994 207.471 258.415 206.756 258.415Z" fill="url(#paint42_linear)"/>
<path d="M108.38 261.956C112.34 261.956 115.551 258.744 115.551 254.782C115.551 250.819 112.34 247.607 108.38 247.607C104.419 247.607 101.209 250.819 101.209 254.782C101.209 258.744 104.419 261.956 108.38 261.956Z" fill="url(#paint43_linear)"/>
<path d="M154.668 76.5844H123.246C121.168 76.5844 119.482 78.2705 119.482 80.3502C119.482 82.43 121.168 84.116 123.246 84.116H154.668C156.747 84.116 158.432 82.43 158.432 80.3502C158.432 78.2705 156.747 76.5844 154.668 76.5844Z" fill="url(#paint44_linear)"/>
<path d="M207.031 86.3742H120.501C119.938 86.3742 119.482 86.8299 119.482 87.3931V87.9454C119.482 88.5086 119.938 88.9643 120.501 88.9643H207.031C207.594 88.9643 208.05 88.5086 208.05 87.9454V87.3931C208.052 86.8299 207.594 86.3742 207.031 86.3742Z" fill="url(#paint45_linear)"/>
<path d="M108.38 89.9139C112.34 89.9139 115.551 86.7018 115.551 82.7395C115.551 78.7772 112.34 75.5652 108.38 75.5652C104.419 75.5652 101.209 78.7772 101.209 82.7395C101.209 86.7018 104.419 89.9139 108.38 89.9139Z" fill="url(#paint46_linear)"/>
<path d="M209.14 221.202H106.142C104.732 221.202 103.454 220.629 102.529 219.705C101.603 218.781 101.033 217.501 101.033 216.091V100.455C101.033 99.0444 101.605 97.7667 102.529 96.8407C103.453 95.9148 104.732 95.3442 106.142 95.3442H209.14C210.475 95.3442 211.691 95.8564 212.6 96.6949C213.613 97.6281 214.248 98.9679 214.248 100.455V216.091C214.248 217.489 213.687 218.754 212.78 219.678C211.855 220.616 210.565 221.202 209.14 221.202Z" fill="url(#paint47_linear)"/>
<path d="M207.907 204.059C207.792 203.959 207.634 203.931 207.49 203.984L196.328 208.248C196.174 208.306 196.074 208.443 196.063 208.605C196.051 208.805 196.184 208.984 196.379 209.031L201.713 210.295L202.975 215.632C203.021 215.821 203.183 215.949 203.374 215.949C203.384 215.949 203.393 215.949 203.402 215.949C203.564 215.94 203.701 215.838 203.759 215.685L208.02 204.517C208.084 204.352 208.038 204.174 207.907 204.059ZM196.561 208.625L207.067 204.613L201.828 209.872L196.561 208.625ZM203.382 215.451L202.136 210.182L207.413 204.885L203.382 215.451Z" fill="url(#paint48_linear)"/>
<path d="M117.365 209.062C118.918 205.387 115.281 202.327 111.328 205.095C107.376 202.327 103.738 205.387 105.29 209.062C105.544 209.663 105.917 210.205 106.374 210.671L111.328 215.744L116.281 210.671C116.737 210.205 117.11 209.661 117.365 209.062Z" fill="url(#paint49_linear)"/>
<path d="M131.297 216.089C131.212 216.089 131.126 216.072 131.044 216.036L128.794 215.064C128.153 215.305 127.479 215.425 126.79 215.425C123.629 215.425 121.059 212.853 121.059 209.691C121.059 206.528 123.629 203.956 126.79 203.956C129.951 203.956 132.522 206.528 132.522 209.691C132.522 211.078 132.026 212.401 131.121 213.446L131.879 215.201C131.982 215.441 131.93 215.717 131.746 215.901C131.622 216.025 131.461 216.089 131.297 216.089ZM128.805 214.231L131.035 215.194L130.213 213.291L130.388 213.107C131.266 212.181 131.751 210.967 131.751 209.693C131.751 206.955 129.525 204.729 126.79 204.729C124.054 204.729 121.829 206.957 121.829 209.693C121.829 212.43 124.056 214.656 126.79 214.656C127.433 214.656 128.062 214.534 128.656 214.291L128.805 214.231Z" fill="url(#paint50_linear)"/>
<path d="M205.687 187.918C205.749 181.352 184.68 175.826 158.627 175.577C132.574 175.327 111.403 180.448 111.34 187.015C111.277 193.581 132.347 199.107 158.4 199.356C184.453 199.606 205.624 194.485 205.687 187.918Z" fill="#D1D5D7"/>
<path fill-rule="evenodd" clip-rule="evenodd" d="M150.725 156.426L145.788 163.466C144.757 164.937 145.116 166.985 146.586 168.017L183.808 194.153C185.278 195.187 187.326 194.828 188.359 193.355L193.296 186.316C194.328 184.843 193.969 182.796 192.498 181.762L155.274 155.63C153.804 154.596 151.758 154.955 150.725 156.426Z" fill="url(#paint51_linear)"/>
<path fill-rule="evenodd" clip-rule="evenodd" d="M123.782 148.441C124.776 146.507 125.773 144.573 126.771 142.641C126.957 142.282 126.944 141.883 126.735 141.534C126.525 141.186 126.177 140.988 125.773 140.984L120.043 140.929C119.626 140.926 119.265 141.13 119.056 141.489L115.414 147.666C115.203 148.025 115.197 148.439 115.403 148.802L118.221 153.792C118.422 154.146 118.763 154.354 119.167 154.368C119.571 154.383 119.928 154.203 120.153 153.864C121.362 152.057 122.572 150.249 123.782 148.441Z" fill="#AFBDC1"/>
<path fill-rule="evenodd" clip-rule="evenodd" d="M113.833 165.263C112.818 166.71 118.318 173.414 123.911 177.341C129.502 181.265 136.307 184.513 137.324 183.064L155.187 160.93L140.257 152.721L128.568 140.929L113.833 165.263Z" fill="url(#paint52_linear)"/>
<path opacity="0.1" fill-rule="evenodd" clip-rule="evenodd" d="M126.191 178.659C130.575 181.25 134.656 183.416 136.093 183.33L141.422 173.97C138.157 171.44 134.557 168.916 134.557 168.916L126.86 168.365C126.858 168.365 131.695 169.552 126.191 178.659Z" fill="#05090B"/>
<path fill-rule="evenodd" clip-rule="evenodd" d="M114.698 157.56C113.21 159.683 118.65 166.07 126.85 171.83C135.05 177.588 142.904 180.536 144.395 178.412L170.589 145.951L153.446 133.913L136.304 121.876L114.698 157.56Z" fill="url(#paint53_linear)"/>
<path fill-rule="evenodd" clip-rule="evenodd" d="M170.633 145.984L161.63 157.055C151.708 158.346 131.227 143.303 129.277 133.483L136.736 121.286L170.633 145.984Z" fill="url(#paint54_linear)"/>
<path opacity="0.1" fill-rule="evenodd" clip-rule="evenodd" d="M130.479 174.211C137.254 178.352 143.128 180.217 144.394 178.412L170.588 145.951L163.197 140.762L144.006 168.123C140.433 173.214 135.387 174.72 130.479 174.211Z" fill="#05090B"/>
<path fill-rule="evenodd" clip-rule="evenodd" d="M136.303 121.876C136.303 121.876 150.539 97.8685 151.055 48.9276L195.229 74.3477L234.142 107.27C188.314 124.393 170.589 145.951 170.589 145.951C169.1 148.073 160.217 144.403 150.749 137.758C141.281 131.11 134.813 123.999 136.303 121.876Z" fill="url(#paint55_linear)"/>
<path opacity="0.1" fill-rule="evenodd" clip-rule="evenodd" d="M191.706 72.3191L195.231 74.3479L234.144 107.27C188.316 124.393 170.591 145.951 170.591 145.951C169.671 147.262 165.936 146.365 160.982 143.922L184.84 109.913C197.008 92.5663 176.925 70.1446 176.925 70.1446C176.925 70.1446 182.892 70.9776 191.706 72.3191Z" fill="#05090B"/>
<path fill-rule="evenodd" clip-rule="evenodd" d="M152.086 45.1946C146.896 52.5932 161.764 71.9854 185.297 88.5087C208.828 105.032 232.111 112.427 237.301 105.03C242.492 97.6315 227.624 78.2393 204.093 61.716C180.56 45.1928 157.277 37.7961 152.086 45.1946Z" fill="url(#paint56_linear)"/>
<path fill-rule="evenodd" clip-rule="evenodd" d="M156.883 47.5808C152.788 53.4191 166.603 70.1811 187.74 85.0238C208.877 99.8646 229.333 107.165 233.426 101.326C237.52 95.4882 223.705 78.7262 202.57 63.8835C181.433 49.0427 160.977 41.7425 156.883 47.5808Z" fill="url(#paint57_linear)"/>
<path fill-rule="evenodd" clip-rule="evenodd" d="M156.49 52.2704C158.591 60.0244 170.817 73.1391 187.744 85.0234C204.667 96.9078 221.153 103.955 229.155 103.295C227.054 95.5425 214.826 82.426 197.901 70.5435C180.976 58.6591 164.49 51.6124 156.49 52.2704Z" fill="url(#paint58_linear)"/>
<path fill-rule="evenodd" clip-rule="evenodd" d="M196.148 91.0371L201.872 79.51L194.991 74.6797L188.11 69.8494L179.221 79.1546C181.824 81.238 184.593 83.3159 187.503 85.3574C190.412 87.3952 193.305 89.2945 196.148 91.0371Z" fill="url(#paint59_linear)"/>
<path fill-rule="evenodd" clip-rule="evenodd" d="M188.029 69.9479C187.189 71.1455 189.592 74.2824 193.396 76.9528C197.2 79.6249 200.966 80.8188 201.806 79.6213C202.647 78.4237 200.242 75.2886 196.438 72.6183C192.634 69.9443 188.869 68.7485 188.029 69.9479Z" fill="url(#paint60_linear)"/>
<path fill-rule="evenodd" clip-rule="evenodd" d="M329.871 309.716H285.014C278.936 309.716 274.008 304.785 274.008 298.705V253.825C274.008 247.744 278.936 242.814 285.014 242.814H329.871C335.949 242.814 340.877 247.744 340.877 253.825V298.705C340.877 304.785 335.949 309.716 329.871 309.716Z" fill="url(#paint61_linear)"/>
<path fill-rule="evenodd" clip-rule="evenodd" d="M325.586 309.716H285.012C278.934 309.716 274.006 304.786 274.006 298.705V258.11C274.006 252.03 278.934 247.099 285.012 247.099H325.586C331.664 247.099 336.592 252.03 336.592 258.11V298.705C336.592 304.786 331.666 309.716 325.586 309.716Z" fill="url(#paint62_linear)"/>
<path d="M329.895 268.252C329.78 265.633 329.356 263.832 328.749 262.272C328.124 260.615 327.161 259.133 325.9 257.901C324.668 256.649 323.176 255.677 321.54 255.061C319.972 254.454 318.181 254.031 315.565 253.915C312.926 253.789 312.09 253.76 305.4 253.76C298.711 253.76 297.874 253.789 295.247 253.904C292.629 254.019 290.829 254.443 289.272 255.05C287.616 255.675 286.134 256.64 284.901 257.901C283.649 259.133 282.678 260.626 282.063 262.263C281.456 263.832 281.033 265.624 280.917 268.241C280.791 270.881 280.762 271.717 280.762 278.411C280.762 285.104 280.791 285.94 280.906 288.569C281.02 291.188 281.445 292.989 282.052 294.549C282.676 296.206 283.649 297.688 284.901 298.92C286.133 300.172 287.625 301.144 289.261 301.76C290.829 302.367 292.62 302.79 295.238 302.907C297.865 303.023 298.703 303.051 305.391 303.051C312.081 303.051 312.917 303.021 315.544 302.907C318.162 302.792 319.962 302.367 321.52 301.76C324.83 300.479 327.448 297.859 328.729 294.547C329.336 292.978 329.759 291.186 329.875 288.567C329.99 285.939 330.019 285.1 330.019 278.409C330.019 271.717 330.01 270.883 329.895 268.252ZM325.457 288.377C325.352 290.785 324.947 292.085 324.61 292.951C323.783 295.098 322.079 296.802 319.932 297.632C319.066 297.969 317.756 298.373 315.36 298.479C312.763 298.596 311.983 298.623 305.41 298.623C298.836 298.623 298.047 298.594 295.457 298.479C293.05 298.373 291.751 297.969 290.886 297.632C289.818 297.236 288.845 296.611 288.056 295.792C287.238 294.992 286.614 294.03 286.218 292.962C285.881 292.096 285.477 290.785 285.371 288.388C285.254 285.789 285.227 285.009 285.227 278.431C285.227 271.854 285.256 271.065 285.371 268.475C285.477 266.067 285.881 264.767 286.218 263.901C286.614 262.833 287.238 261.86 288.066 261.071C288.864 260.252 289.827 259.627 290.895 259.232C291.76 258.894 293.07 258.49 295.466 258.384C298.064 258.269 298.844 258.24 305.417 258.24C312.001 258.24 312.779 258.269 315.37 258.384C317.776 258.49 319.075 258.894 319.941 259.232C321.008 259.625 321.981 260.252 322.77 261.071C323.588 261.871 324.213 262.833 324.608 263.901C324.945 264.767 325.35 266.078 325.455 268.475C325.57 271.074 325.599 271.854 325.599 278.431C325.603 285.007 325.574 285.778 325.457 288.377Z" fill="white"/>
<path d="M305.401 265.75C298.414 265.75 292.744 271.42 292.744 278.412C292.744 285.402 298.414 291.075 305.401 291.075C312.387 291.075 318.057 285.404 318.057 278.412C318.057 271.42 312.387 265.75 305.401 265.75ZM305.401 286.626C300.868 286.626 297.191 282.947 297.191 278.412C297.191 273.877 300.868 270.199 305.401 270.199C309.933 270.199 313.61 273.877 313.61 278.412C313.61 282.947 309.933 286.626 305.401 286.626Z" fill="white"/>
<path d="M321.51 265.248C321.51 266.881 320.187 268.204 318.555 268.204C316.922 268.204 315.6 266.881 315.6 265.248C315.6 263.615 316.922 262.291 318.555 262.291C320.187 262.291 321.51 263.615 321.51 265.248Z" fill="white"/>
<path fill-rule="evenodd" clip-rule="evenodd" d="M220.078 315.172H264.936C271.013 315.172 275.942 310.241 275.942 304.16V259.28C275.942 253.2 271.013 248.269 264.936 248.269H220.078C214 248.269 209.072 253.2 209.072 259.28V304.16C209.072 310.241 214 315.172 220.078 315.172Z" fill="url(#paint63_linear)"/>
<path fill-rule="evenodd" clip-rule="evenodd" d="M219.73 315.171H260.305C266.383 315.171 271.311 310.241 271.311 304.16V263.566C271.311 257.485 266.383 252.554 260.305 252.554H219.73C213.653 252.554 208.725 257.485 208.725 263.566V304.16C208.725 310.241 213.651 315.171 219.73 315.171Z" fill="url(#paint64_linear)"/>
<path d="M261.872 271.444C260.24 272.16 258.5 272.634 256.688 272.866C258.553 271.752 259.976 270 260.646 267.889C258.907 268.927 256.986 269.659 254.94 270.069C253.29 268.31 250.936 267.22 248.367 267.22C243.386 267.22 239.374 271.265 239.374 276.225C239.374 276.938 239.435 277.625 239.582 278.277C232.102 277.913 225.483 274.326 221.036 268.861C220.26 270.208 219.804 271.752 219.804 273.411C219.804 276.529 221.409 279.293 223.801 280.893C222.355 280.866 220.937 280.446 219.737 279.785C219.737 279.812 219.737 279.848 219.737 279.883C219.737 284.258 222.856 287.892 226.946 288.729C226.213 288.929 225.415 289.026 224.587 289.026C224.011 289.026 223.43 288.993 222.883 288.873C224.049 292.438 227.358 295.059 231.291 295.145C228.23 297.54 224.342 298.984 220.134 298.984C219.396 298.984 218.687 298.951 217.98 298.86C221.967 301.432 226.691 302.899 231.785 302.899C248.343 302.899 257.394 289.176 257.394 277.282C257.394 276.885 257.38 276.5 257.362 276.119C259.149 274.849 260.65 273.267 261.872 271.444Z" fill="white"/>
<path fill-rule="evenodd" clip-rule="evenodd" d="M281.639 252.367H236.781C230.704 252.367 225.775 247.436 225.775 241.356V196.476C225.775 190.395 230.704 185.465 236.781 185.465H281.639C287.717 185.465 292.645 190.395 292.645 196.476V241.356C292.645 247.436 287.717 252.367 281.639 252.367Z" fill="url(#paint65_linear)"/>
<path fill-rule="evenodd" clip-rule="evenodd" d="M277.358 252.367H236.783C230.705 252.367 225.777 247.436 225.777 241.356V200.761C225.777 194.68 230.705 189.75 236.783 189.75H277.358C283.435 189.75 288.363 194.68 288.363 200.761V241.356C288.363 247.436 283.435 252.367 277.358 252.367Z" fill="url(#paint66_linear)"/>
<path d="M263.347 204.053H268.04V195.874C267.231 195.763 264.446 195.512 261.203 195.512C254.435 195.512 249.8 199.77 249.8 207.598V214.802H242.332V223.945H249.8V246.951H258.956V223.947H266.122L267.259 214.804H258.953V208.504C258.955 205.861 259.665 204.053 263.347 204.053Z" fill="white"/>
<path d="M77.9334 25.7914C77.9334 25.7914 37.1111 25.7914 29.862 25.7914C22.6128 25.7914 22.6183 17.4614 28.8873 15.2595C34.945 13.1305 40.2739 18.0829 40.2739 18.0829C40.2739 18.0829 42.0192 -2.18606 58.5671 0.194455C71.6134 2.07007 70.8555 15.1009 70.8555 15.1009C70.8555 15.1009 73.5409 9.73838 80.5787 11.7671C87.9189 13.8833 87.1228 25.7914 77.9334 25.7914Z" fill="url(#paint67_linear)"/>
<path d="M93.2667 29.7559C93.2667 29.7559 63.6963 29.7559 58.4457 29.7559C53.1951 29.7559 53.1988 23.7226 57.7388 22.1259C62.1258 20.5838 65.9863 24.171 65.9863 24.171C65.9863 24.171 67.2507 9.48875 79.2367 11.2131C88.6866 12.5728 88.1382 22.0111 88.1382 22.0111C88.1382 22.0111 90.084 18.1268 95.1815 19.5959C100.501 21.1288 99.9238 29.7559 93.2667 29.7559Z" fill="url(#paint68_linear)"/>
<path d="M100.372 305.092C100.372 305.092 99.6741 280.404 91.1715 278.582C82.669 276.759 81.4556 293.975 91.1715 310.988L100.372 305.092Z" fill="url(#paint69_linear)"/>
<path d="M95.8388 307.941C91.7852 291.286 90.0398 285.16 90.0234 285.102L90.2967 285.023C90.3131 285.083 92.0603 291.213 96.1157 307.875L95.8388 307.941Z" fill="white"/>
<path d="M103.316 310.987C103.316 310.987 116.271 298.43 111.414 292.353C106.555 286.277 94.4092 296.809 91.1699 310.987H103.316Z" fill="url(#paint70_linear)"/>
<path d="M98.3855 309.22L98.125 309.107C101.339 301.672 107.61 295.752 107.673 295.692L107.866 295.9C107.803 295.958 101.574 301.84 98.3855 309.22Z" fill="white"/>
<path d="M92.3513 310.987C92.3513 310.987 89.0446 296.707 82.3657 297.923C75.685 299.139 82.3657 310.884 82.3657 310.884L92.3513 310.987Z" fill="url(#paint71_linear)"/>
<path d="M83.7042 300.713L83.4297 300.787L85.6563 309.091L85.9308 309.017L83.7042 300.713Z" fill="white"/>
<defs>
<linearGradient id="paint0_linear" x1="118.841" y1="47.4304" x2="120.859" y2="47.4304" gradientUnits="userSpaceOnUse">
<stop stop-color="#796393"/>
<stop offset="0.5669" stop-color="#51396C"/>
<stop offset="1" stop-color="#361D52"/>
</linearGradient>
<linearGradient id="paint1_linear" x1="313.325" y1="183.89" x2="316.482" y2="183.89" gradientUnits="userSpaceOnUse">
<stop stop-color="#796393"/>
<stop offset="0.5669" stop-color="#51396C"/>
<stop offset="1" stop-color="#361D52"/>
</linearGradient>
<linearGradient id="paint2_linear" x1="28.0757" y1="71.5171" x2="30.0933" y2="71.5171" gradientUnits="userSpaceOnUse">
<stop stop-color="#796393"/>
<stop offset="0.5669" stop-color="#51396C"/>
<stop offset="1" stop-color="#361D52"/>
</linearGradient>
<linearGradient id="paint3_linear" x1="210.778" y1="49.4488" x2="212.796" y2="49.4488" gradientUnits="userSpaceOnUse">
<stop stop-color="#796393"/>
<stop offset="0.5669" stop-color="#51396C"/>
<stop offset="1" stop-color="#361D52"/>
</linearGradient>
<linearGradient id="paint4_linear" x1="169.253" y1="115.176" x2="171.27" y2="115.176" gradientUnits="userSpaceOnUse">
<stop stop-color="#796393"/>
<stop offset="0.5669" stop-color="#51396C"/>
<stop offset="1" stop-color="#361D52"/>
</linearGradient>
<linearGradient id="paint5_linear" x1="77.6918" y1="103.532" x2="78.4841" y2="103.532" gradientUnits="userSpaceOnUse">
<stop stop-color="#796393"/>
<stop offset="0.5669" stop-color="#51396C"/>
<stop offset="1" stop-color="#361D52"/>
</linearGradient>
<linearGradient id="paint6_linear" x1="76.2929" y1="103.532" x2="79.8809" y2="103.532" gradientUnits="userSpaceOnUse">
<stop stop-color="#796393"/>
<stop offset="0.5669" stop-color="#51396C"/>
<stop offset="1" stop-color="#361D52"/>
</linearGradient>
<linearGradient id="paint7_linear" x1="336.915" y1="46.2953" x2="337.708" y2="46.2953" gradientUnits="userSpaceOnUse">
<stop stop-color="#796393"/>
<stop offset="0.5669" stop-color="#51396C"/>
<stop offset="1" stop-color="#361D52"/>
</linearGradient>
<linearGradient id="paint8_linear" x1="335.516" y1="46.2954" x2="339.104" y2="46.2954" gradientUnits="userSpaceOnUse">
<stop stop-color="#796393"/>
<stop offset="0.5669" stop-color="#51396C"/>
<stop offset="1" stop-color="#361D52"/>
</linearGradient>
<linearGradient id="paint9_linear" x1="293.016" y1="31.119" x2="293.809" y2="31.119" gradientUnits="userSpaceOnUse">
<stop stop-color="#796393"/>
<stop offset="0.5669" stop-color="#51396C"/>
<stop offset="1" stop-color="#361D52"/>
</linearGradient>
<linearGradient id="paint10_linear" x1="291.617" y1="31.1188" x2="295.206" y2="31.1188" gradientUnits="userSpaceOnUse">
<stop stop-color="#796393"/>
<stop offset="0.5669" stop-color="#51396C"/>
<stop offset="1" stop-color="#361D52"/>
</linearGradient>
<linearGradient id="paint11_linear" x1="358.774" y1="120.447" x2="359.567" y2="120.447" gradientUnits="userSpaceOnUse">
<stop stop-color="#796393"/>
<stop offset="0.5669" stop-color="#51396C"/>
<stop offset="1" stop-color="#361D52"/>
</linearGradient>
<linearGradient id="paint12_linear" x1="357.379" y1="120.446" x2="360.969" y2="120.446" gradientUnits="userSpaceOnUse">
<stop stop-color="#796393"/>
<stop offset="0.5669" stop-color="#51396C"/>
<stop offset="1" stop-color="#361D52"/>
</linearGradient>
<linearGradient id="paint13_linear" x1="224.112" y1="20.786" x2="224.905" y2="20.786" gradientUnits="userSpaceOnUse">
<stop stop-color="#796393"/>
<stop offset="0.5669" stop-color="#51396C"/>
<stop offset="1" stop-color="#361D52"/>
</linearGradient>
<linearGradient id="paint14_linear" x1="222.713" y1="20.7864" x2="226.302" y2="20.7864" gradientUnits="userSpaceOnUse">
<stop stop-color="#796393"/>
<stop offset="0.5669" stop-color="#51396C"/>
<stop offset="1" stop-color="#361D52"/>
</linearGradient>
<linearGradient id="paint15_linear" x1="284.632" y1="137.135" x2="286.649" y2="137.135" gradientUnits="userSpaceOnUse">
<stop stop-color="#796393"/>
<stop offset="0.5669" stop-color="#51396C"/>
<stop offset="1" stop-color="#361D52"/>
</linearGradient>
<linearGradient id="paint16_linear" x1="317.882" y1="96.216" x2="318.675" y2="96.216" gradientUnits="userSpaceOnUse">
<stop stop-color="#796393"/>
<stop offset="0.5669" stop-color="#51396C"/>
<stop offset="1" stop-color="#361D52"/>
</linearGradient>
<linearGradient id="paint17_linear" x1="316.481" y1="96.2163" x2="320.07" y2="96.2163" gradientUnits="userSpaceOnUse">
<stop stop-color="#796393"/>
<stop offset="0.5669" stop-color="#51396C"/>
<stop offset="1" stop-color="#361D52"/>
</linearGradient>
<linearGradient id="paint18_linear" x1="12.0004" y1="185.469" x2="12.7934" y2="185.469" gradientUnits="userSpaceOnUse">
<stop stop-color="#796393"/>
<stop offset="0.5669" stop-color="#51396C"/>
<stop offset="1" stop-color="#361D52"/>
</linearGradient>
<linearGradient id="paint19_linear" x1="10.5997" y1="185.47" x2="14.1888" y2="185.47" gradientUnits="userSpaceOnUse">
<stop stop-color="#796393"/>
<stop offset="0.5669" stop-color="#51396C"/>
<stop offset="1" stop-color="#361D52"/>
</linearGradient>
<linearGradient id="paint20_linear" x1="62.9297" y1="153.816" x2="63.7227" y2="153.816" gradientUnits="userSpaceOnUse">
<stop stop-color="#796393"/>
<stop offset="0.5669" stop-color="#51396C"/>
<stop offset="1" stop-color="#361D52"/>
</linearGradient>
<linearGradient id="paint21_linear" x1="61.5308" y1="153.816" x2="65.1199" y2="153.816" gradientUnits="userSpaceOnUse">
<stop stop-color="#796393"/>
<stop offset="0.5669" stop-color="#51396C"/>
<stop offset="1" stop-color="#361D52"/>
</linearGradient>
<linearGradient id="paint22_linear" x1="242.841" y1="88.9987" x2="242.841" y2="174.192" gradientUnits="userSpaceOnUse">
<stop stop-color="#1158BE"/>
<stop offset="1" stop-color="#B3D2FF"/>
</linearGradient>
<linearGradient id="paint23_linear" x1="237.094" y1="112.559" x2="237.094" y2="174.192" gradientUnits="userSpaceOnUse">
<stop stop-color="#1158BE"/>
<stop offset="1" stop-color="#B3D2FF"/>
</linearGradient>
<linearGradient id="paint24_linear" x1="261.875" y1="119.66" x2="261.875" y2="204.108" gradientUnits="userSpaceOnUse">
<stop stop-color="#1158BE"/>
<stop offset="1" stop-color="#B3D2FF"/>
</linearGradient>
<linearGradient id="paint25_linear" x1="239.524" y1="139.688" x2="239.524" y2="201.782" gradientUnits="userSpaceOnUse">
<stop stop-color="#1158BE"/>
<stop offset="1" stop-color="#B3D2FF"/>
</linearGradient>
<linearGradient id="paint26_linear" x1="63.8242" y1="205.425" x2="67.8418" y2="205.425" gradientUnits="userSpaceOnUse">
<stop stop-color="#595B68"/>
<stop offset="0.5384" stop-color="#38404E"/>
<stop offset="1" stop-color="#202D3B"/>
</linearGradient>
<linearGradient id="paint27_linear" x1="60.5269" y1="200.198" x2="66.8498" y2="200.198" gradientUnits="userSpaceOnUse">
<stop stop-color="#595B68"/>
<stop offset="0.5384" stop-color="#38404E"/>
<stop offset="1" stop-color="#202D3B"/>
</linearGradient>
<linearGradient id="paint28_linear" x1="65.1796" y1="197.021" x2="77.4259" y2="197.021" gradientUnits="userSpaceOnUse">
<stop stop-color="#FCEE99"/>
<stop offset="0.6107" stop-color="#FDC182"/>
<stop offset="1" stop-color="#FEA975"/>
</linearGradient>
<linearGradient id="paint29_linear" x1="72.5094" y1="196.951" x2="78.5288" y2="196.951" gradientUnits="userSpaceOnUse">
<stop stop-color="#FCEE99"/>
<stop offset="0.6107" stop-color="#FDC182"/>
<stop offset="1" stop-color="#FEA975"/>
</linearGradient>
<linearGradient id="paint30_linear" x1="72.6761" y1="197.174" x2="75.8869" y2="197.174" gradientUnits="userSpaceOnUse">
<stop stop-color="#595B68"/>
<stop offset="0.5384" stop-color="#38404E"/>
<stop offset="1" stop-color="#202D3B"/>
</linearGradient>
<linearGradient id="paint31_linear" x1="85.5647" y1="237.06" x2="30.2471" y2="205.001" gradientUnits="userSpaceOnUse">
<stop stop-color="#60CDF9"/>
<stop offset="0.4183" stop-color="#5C9FED"/>
<stop offset="1" stop-color="#565ADB"/>
</linearGradient>
<linearGradient id="paint32_linear" x1="79.8173" y1="298.485" x2="22.1651" y2="248.297" gradientUnits="userSpaceOnUse">
<stop stop-color="#595B68"/>
<stop offset="0.0385" stop-color="#545764"/>
<stop offset="0.2352" stop-color="#3D4452"/>
<stop offset="0.4478" stop-color="#2D3745"/>
<stop offset="0.6855" stop-color="#232F3D"/>
<stop offset="1" stop-color="#202D3B"/>
</linearGradient>
<linearGradient id="paint33_linear" x1="53.9188" y1="289.963" x2="7.89473" y2="257.437" gradientUnits="userSpaceOnUse">
<stop stop-color="#595B68"/>
<stop offset="0.1917" stop-color="#464C59"/>
<stop offset="0.4697" stop-color="#313B48"/>
<stop offset="0.742" stop-color="#24303E"/>
<stop offset="1" stop-color="#202D3B"/>
</linearGradient>
<linearGradient id="paint34_linear" x1="71.6959" y1="240.664" x2="10.3418" y2="215.577" gradientUnits="userSpaceOnUse">
<stop stop-color="#60CDF9"/>
<stop offset="0.2339" stop-color="#5DAFF1"/>
<stop offset="0.7529" stop-color="#5872E1"/>
<stop offset="1" stop-color="#565ADB"/>
</linearGradient>
<linearGradient id="paint35_linear" x1="23.3981" y1="261.781" x2="42.6857" y2="172.524" gradientUnits="userSpaceOnUse">
<stop stop-color="#60CDF9"/>
<stop offset="0.2339" stop-color="#5DAFF1"/>
<stop offset="0.7529" stop-color="#5872E1"/>
<stop offset="1" stop-color="#565ADB"/>
</linearGradient>
<linearGradient id="paint36_linear" x1="65.5648" y1="376.703" x2="236.89" y2="8.33119" gradientUnits="userSpaceOnUse">
<stop stop-color="#595B68"/>
<stop offset="0.0821" stop-color="#454B58"/>
<stop offset="0.1859" stop-color="#343E4B"/>
<stop offset="0.3152" stop-color="#293442"/>
<stop offset="0.4965" stop-color="#222F3C"/>
<stop offset="1" stop-color="#202D3B"/>
</linearGradient>
<linearGradient id="paint37_linear" x1="86.3756" y1="38.1818" x2="237.679" y2="336.52" gradientUnits="userSpaceOnUse">
<stop stop-color="#60CDF9"/>
<stop offset="0.2339" stop-color="#5DAFF1"/>
<stop offset="0.7529" stop-color="#5872E1"/>
<stop offset="1" stop-color="#565ADB"/>
</linearGradient>
<linearGradient id="paint38_linear" x1="101.032" y1="285.36" x2="214.249" y2="285.36" gradientUnits="userSpaceOnUse">
<stop stop-color="white"/>
<stop offset="0.5591" stop-color="#DBE6F9"/>
<stop offset="1" stop-color="#C3D6F5"/>
</linearGradient>
<linearGradient id="paint39_linear" x1="101.204" y1="229.516" x2="152.367" y2="229.516" gradientUnits="userSpaceOnUse">
<stop stop-color="white"/>
<stop offset="0.5591" stop-color="#DBE6F9"/>
<stop offset="1" stop-color="#C3D6F5"/>
</linearGradient>
<linearGradient id="paint40_linear" x1="101.204" y1="239.292" x2="203.925" y2="239.292" gradientUnits="userSpaceOnUse">
<stop stop-color="white"/>
<stop offset="0.5591" stop-color="#DBE6F9"/>
<stop offset="1" stop-color="#C3D6F5"/>
</linearGradient>
<linearGradient id="paint41_linear" x1="119.482" y1="252.391" x2="158.431" y2="252.391" gradientUnits="userSpaceOnUse">
<stop stop-color="white"/>
<stop offset="0.5591" stop-color="#DBE6F9"/>
<stop offset="1" stop-color="#C3D6F5"/>
</linearGradient>
<linearGradient id="paint42_linear" x1="119.482" y1="259.711" x2="208.051" y2="259.711" gradientUnits="userSpaceOnUse">
<stop stop-color="white"/>
<stop offset="0.5591" stop-color="#DBE6F9"/>
<stop offset="1" stop-color="#C3D6F5"/>
</linearGradient>
<linearGradient id="paint43_linear" x1="101.208" y1="254.781" x2="115.551" y2="254.781" gradientUnits="userSpaceOnUse">
<stop stop-color="white"/>
<stop offset="0.5591" stop-color="#DBE6F9"/>
<stop offset="1" stop-color="#C3D6F5"/>
</linearGradient>
<linearGradient id="paint44_linear" x1="119.482" y1="80.3503" x2="158.431" y2="80.3503" gradientUnits="userSpaceOnUse">
<stop stop-color="white"/>
<stop offset="0.5591" stop-color="#DBE6F9"/>
<stop offset="1" stop-color="#C3D6F5"/>
</linearGradient>
<linearGradient id="paint45_linear" x1="119.482" y1="87.6694" x2="208.051" y2="87.6694" gradientUnits="userSpaceOnUse">
<stop stop-color="white"/>
<stop offset="0.5591" stop-color="#DBE6F9"/>
<stop offset="1" stop-color="#C3D6F5"/>
</linearGradient>
<linearGradient id="paint46_linear" x1="101.208" y1="82.7396" x2="115.551" y2="82.7396" gradientUnits="userSpaceOnUse">
<stop stop-color="white"/>
<stop offset="0.5591" stop-color="#DBE6F9"/>
<stop offset="1" stop-color="#C3D6F5"/>
</linearGradient>
<linearGradient id="paint47_linear" x1="101.032" y1="158.271" x2="214.249" y2="158.271" gradientUnits="userSpaceOnUse">
<stop stop-color="white"/>
<stop offset="0.5591" stop-color="#DBE6F9"/>
<stop offset="1" stop-color="#C3D6F5"/>
</linearGradient>
<linearGradient id="paint48_linear" x1="196.064" y1="209.952" x2="208.049" y2="209.952" gradientUnits="userSpaceOnUse">
<stop stop-color="#595B68"/>
<stop offset="0.5384" stop-color="#38404E"/>
<stop offset="1" stop-color="#202D3B"/>
</linearGradient>
<linearGradient id="paint49_linear" x1="104.925" y1="209.884" x2="117.732" y2="209.884" gradientUnits="userSpaceOnUse">
<stop stop-color="#F2576C"/>
<stop offset="0.6767" stop-color="#FF002A"/>
<stop offset="1" stop-color="#FF002A"/>
</linearGradient>
<linearGradient id="paint50_linear" x1="121.058" y1="210.023" x2="132.522" y2="210.023" gradientUnits="userSpaceOnUse">
<stop stop-color="#595B68"/>
<stop offset="0.5384" stop-color="#38404E"/>
<stop offset="1" stop-color="#202D3B"/>
</linearGradient>
<linearGradient id="paint51_linear" x1="145.198" y1="174.892" x2="193.883" y2="174.892" gradientUnits="userSpaceOnUse">
<stop stop-color="#595B68"/>
<stop offset="0.5384" stop-color="#38404E"/>
<stop offset="1" stop-color="#202D3B"/>
</linearGradient>
<linearGradient id="paint52_linear" x1="113.711" y1="162.173" x2="155.186" y2="162.173" gradientUnits="userSpaceOnUse">
<stop stop-color="#FA8696"/>
<stop offset="0.6767" stop-color="#FF002A"/>
<stop offset="1" stop-color="#AC3164"/>
</linearGradient>
<linearGradient id="paint53_linear" x1="114.453" y1="150.489" x2="170.59" y2="150.489" gradientUnits="userSpaceOnUse">
<stop stop-color="white"/>
<stop offset="0.5591" stop-color="#DBE6F9"/>
<stop offset="1" stop-color="#C3D6F5"/>
</linearGradient>
<linearGradient id="paint54_linear" x1="129.276" y1="139.209" x2="170.633" y2="139.209" gradientUnits="userSpaceOnUse">
<stop stop-color="#595B68"/>
<stop offset="0.5384" stop-color="#38404E"/>
<stop offset="1" stop-color="#202D3B"/>
</linearGradient>
<linearGradient id="paint55_linear" x1="136.09" y1="97.7407" x2="234.142" y2="97.7407" gradientUnits="userSpaceOnUse">
<stop stop-color="#FA8696"/>
<stop offset="0.6767" stop-color="#FF002A"/>
<stop offset="1" stop-color="#FF002A"/>
</linearGradient>
<linearGradient id="paint56_linear" x1="151.054" y1="75.1117" x2="238.334" y2="75.1117" gradientUnits="userSpaceOnUse">
<stop stop-color="white"/>
<stop offset="0.5591" stop-color="#DBE6F9"/>
<stop offset="1" stop-color="#C3D6F5"/>
</linearGradient>
<linearGradient id="paint57_linear" x1="156.165" y1="74.454" x2="234.146" y2="74.454" gradientUnits="userSpaceOnUse">
<stop stop-color="#767AA4"/>
<stop offset="0.5524" stop-color="#5C6081"/>
<stop offset="1" stop-color="#4B4F69"/>
</linearGradient>
<linearGradient id="paint58_linear" x1="156.49" y1="77.783" x2="229.154" y2="77.783" gradientUnits="userSpaceOnUse">
<stop stop-color="#595B68"/>
<stop offset="0.5384" stop-color="#38404E"/>
<stop offset="1" stop-color="#202D3B"/>
</linearGradient>
<linearGradient id="paint59_linear" x1="179.221" y1="80.442" x2="201.872" y2="80.442" gradientUnits="userSpaceOnUse">
<stop stop-color="white"/>
<stop offset="0.5591" stop-color="#DBE6F9"/>
<stop offset="1" stop-color="#C3D6F5"/>
</linearGradient>
<linearGradient id="paint60_linear" x1="187.862" y1="74.7837" x2="201.974" y2="74.7837" gradientUnits="userSpaceOnUse">
<stop stop-color="#FA8696"/>
<stop offset="0.6767" stop-color="#C24972"/>
<stop offset="1" stop-color="#AC3164"/>
</linearGradient>
<linearGradient id="paint61_linear" x1="384.833" y1="178.373" x2="270.356" y2="323.032" gradientUnits="userSpaceOnUse">
<stop stop-color="#60CDF9"/>
<stop offset="0.2339" stop-color="#5DAFF1"/>
<stop offset="0.7529" stop-color="#5872E1"/>
<stop offset="1" stop-color="#565ADB"/>
</linearGradient>
<linearGradient id="paint62_linear" x1="234.989" y1="327.51" x2="339.367" y2="254.686" gradientUnits="userSpaceOnUse">
<stop stop-color="#60CDF9"/>
<stop offset="0.2339" stop-color="#5DAFF1"/>
<stop offset="0.7529" stop-color="#5872E1"/>
<stop offset="1" stop-color="#565ADB"/>
</linearGradient>
<linearGradient id="paint63_linear" x1="242.507" y1="248.269" x2="242.507" y2="315.172" gradientUnits="userSpaceOnUse">
<stop stop-color="#98C2FF"/>
<stop offset="1" stop-color="#2270E1"/>
</linearGradient>
<linearGradient id="paint64_linear" x1="240.018" y1="252.554" x2="240.018" y2="315.171" gradientUnits="userSpaceOnUse">
<stop stop-color="#98C2FF"/>
<stop offset="1" stop-color="#2270E1"/>
</linearGradient>
<linearGradient id="paint65_linear" x1="343.91" y1="140.593" x2="208.947" y2="265.269" gradientUnits="userSpaceOnUse">
<stop stop-color="#FA8696"/>
<stop offset="0.6767" stop-color="#FE3A5A"/>
<stop offset="1" stop-color="#FD5D77"/>
</linearGradient>
<linearGradient id="paint66_linear" x1="225.777" y1="221.058" x2="288.364" y2="221.058" gradientUnits="userSpaceOnUse">
<stop stop-color="#FA8696"/>
<stop offset="0.6767" stop-color="#FF3657"/>
<stop offset="1" stop-color="#FF002A"/>
</linearGradient>
<linearGradient id="paint67_linear" x1="12.7151" y1="-15.3173" x2="79.2651" y2="39.0205" gradientUnits="userSpaceOnUse">
<stop stop-color="#60CDF9"/>
<stop offset="0.2593" stop-color="#5DA7EF"/>
<stop offset="0.5874" stop-color="#597DE4"/>
<stop offset="0.8457" stop-color="#5764DD"/>
<stop offset="1" stop-color="#565ADB"/>
</linearGradient>
<linearGradient id="paint68_linear" x1="46.026" y1="-0.0228974" x2="94.2326" y2="39.3377" gradientUnits="userSpaceOnUse">
<stop stop-color="#60CDF9"/>
<stop offset="0.2593" stop-color="#5DA7EF"/>
<stop offset="0.5874" stop-color="#597DE4"/>
<stop offset="0.8457" stop-color="#5764DD"/>
<stop offset="1" stop-color="#565ADB"/>
</linearGradient>
<linearGradient id="paint69_linear" x1="92.352" y1="278.449" x2="92.352" y2="310.988" gradientUnits="userSpaceOnUse">
<stop stop-color="#4B8CEB"/>
<stop offset="1" stop-color="#4D94FC"/>
</linearGradient>
<linearGradient id="paint70_linear" x1="101.837" y1="290.596" x2="101.837" y2="310.987" gradientUnits="userSpaceOnUse">
<stop stop-color="#4B8CEB"/>
<stop offset="1" stop-color="#4D94FC"/>
</linearGradient>
<linearGradient id="paint71_linear" x1="85.8739" y1="297.849" x2="85.8739" y2="310.987" gradientUnits="userSpaceOnUse">
<stop stop-color="#4B8CEB"/>
<stop offset="1" stop-color="#4D94FC"/>
</linearGradient>
</defs>
</svg>
