<svg width="15" height="119" viewBox="0 0 15 119" fill="none" xmlns="http://www.w3.org/2000/svg">
<line x1="7.5" y1="11" x2="7.5" y2="104" stroke="#FF285C" stroke-dasharray="1 2"/>
<path fill-rule="evenodd" clip-rule="evenodd" d="M0 7.5C0 5.51088 0.790176 3.60322 2.1967 2.1967C3.60322 0.790176 5.51088 0 7.5 0C9.48912 0 11.3968 0.790176 12.8033 2.1967C14.2098 3.60322 15 5.51088 15 7.5C15 9.48912 14.2098 11.3968 12.8033 12.8033C11.3968 14.2098 9.48912 15 7.5 15C5.51088 15 3.60322 14.2098 2.1967 12.8033C0.790176 11.3968 0 9.48912 0 7.5H0ZM7.072 10.71L11.39 5.312L10.61 4.688L6.928 9.289L4.32 7.116L3.68 7.884L7.072 10.711V10.71Z" fill="#FF285C"/>
<path fill-rule="evenodd" clip-rule="evenodd" d="M0 57.5C0 55.5109 0.790176 53.6032 2.1967 52.1967C3.60322 50.7902 5.51088 50 7.5 50C9.48912 50 11.3968 50.7902 12.8033 52.1967C14.2098 53.6032 15 55.5109 15 57.5C15 59.4891 14.2098 61.3968 12.8033 62.8033C11.3968 64.2098 9.48912 65 7.5 65C5.51088 65 3.60322 64.2098 2.1967 62.8033C0.790176 61.3968 0 59.4891 0 57.5H0ZM7.072 60.71L11.39 55.312L10.61 54.688L6.928 59.289L4.32 57.116L3.68 57.884L7.072 60.711V60.71Z" fill="#FF285C"/>
<path fill-rule="evenodd" clip-rule="evenodd" d="M0 111.5C0 109.511 0.790176 107.603 2.1967 106.197C3.60322 104.79 5.51088 104 7.5 104C9.48912 104 11.3968 104.79 12.8033 106.197C14.2098 107.603 15 109.511 15 111.5C15 113.489 14.2098 115.397 12.8033 116.803C11.3968 118.21 9.48912 119 7.5 119C5.51088 119 3.60322 118.21 2.1967 116.803C0.790176 115.397 0 113.489 0 111.5H0ZM7.072 114.71L11.39 109.312L10.61 108.688L6.928 113.289L4.32 111.116L3.68 111.884L7.072 114.711V114.71Z" fill="#FF285C"/>
</svg>
