<svg width="19" height="19" viewBox="0 0 19 19" fill="none" xmlns="http://www.w3.org/2000/svg">
<path fill-rule="evenodd" clip-rule="evenodd" d="M9.80715 0C4.7306 0 0.615234 4.11536 0.615234 9.19192C0.615234 14.2685 4.7306 18.3838 9.80715 18.3838C14.8837 18.3838 18.9991 14.2685 18.9991 9.19192C18.9991 4.11536 14.8837 0 9.80715 0ZM5.029 7.61155H7.11209V13.8704H5.029V7.61155ZM7.24859 5.67653C7.23507 5.06286 6.79623 4.59545 6.08362 4.59545C5.37101 4.59545 4.90513 5.06286 4.90513 5.67653C4.90513 6.27749 5.35724 6.75836 6.05658 6.75836H6.06989C6.79623 6.75836 7.24859 6.27749 7.24859 5.67653ZM12.2269 7.46613C13.5977 7.46613 14.6253 8.36086 14.6253 10.2833L14.6252 13.8719H12.5422V10.5234C12.5422 9.68238 12.2408 9.10846 11.4867 9.10846C10.9112 9.10846 10.5684 9.49537 10.4179 9.86906C10.3628 10.003 10.3493 10.1896 10.3493 10.3766V13.8721H8.26592C8.26592 13.8721 8.29338 8.20056 8.26592 7.61326H10.3493V8.49977C10.6257 8.07361 11.1209 7.46613 12.2269 7.46613Z" fill="#0E0E0E"/>
</svg>
