<svg width="19" height="19" viewBox="0 0 19 19" fill="none" xmlns="http://www.w3.org/2000/svg">
<path fill-rule="evenodd" clip-rule="evenodd" d="M9.19973 0C4.12318 0 0.0078125 4.11536 0.0078125 9.19192C0.0078125 14.2685 4.12318 18.3838 9.19973 18.3838C14.2763 18.3838 18.3917 14.2685 18.3917 9.19192C18.3917 4.11536 14.2763 0 9.19973 0ZM8.94406 7.78886L8.92477 7.47079C8.8669 6.64643 9.37484 5.89347 10.1785 5.60137C10.4743 5.49752 10.9758 5.48453 11.3037 5.57541C11.4323 5.61436 11.6766 5.74418 11.8502 5.86102L12.1653 6.07522L12.5125 5.96487C12.7053 5.90645 12.9625 5.80909 13.0783 5.74418C13.1876 5.68576 13.284 5.6533 13.284 5.67277C13.284 5.78312 13.0461 6.1596 12.8468 6.36732C12.5768 6.65941 12.6539 6.68538 13.2004 6.49065C13.5283 6.3803 13.5348 6.3803 13.4705 6.50363C13.4319 6.56854 13.2326 6.79573 13.0204 7.00344C12.6603 7.36045 12.6411 7.39939 12.6411 7.69798C12.6411 8.15884 12.4224 9.11952 12.2038 9.64529C11.7988 10.6319 10.9308 11.651 10.0628 12.1638C8.84119 12.8843 7.21451 13.0661 5.84501 12.6442C5.38851 12.5014 4.60411 12.1379 4.60411 12.0729C4.60411 12.0535 4.842 12.0275 5.13133 12.021C5.73571 12.008 6.34009 11.8393 6.85445 11.5407L7.20165 11.333L6.80302 11.1967C6.23722 11.0019 5.72928 10.554 5.60069 10.1321C5.56211 9.99581 5.57497 9.98932 5.93503 9.98932L6.30794 9.98283L5.99289 9.83353C5.61998 9.64529 5.27921 9.32723 5.11204 9.00268C4.98988 8.769 4.83557 8.17832 4.88058 8.13288C4.89344 8.11341 5.02846 8.15235 5.18277 8.20428C5.62641 8.36656 5.68427 8.32761 5.42709 8.05499C4.94487 7.56167 4.79699 6.82818 5.02846 6.13364L5.13776 5.82207L5.56211 6.24399C6.4301 7.09431 7.4524 7.60061 8.62258 7.74991L8.94406 7.78886Z" fill="#0E0E0E"/>
</svg>
